var fontJSON1=
{"glyphs":{"0":{"ha":310,"x_min":0,"x_max":0,"o":"m 182 618 b 150 619 175 621 158 626 b 40 421 70 620 48 481 b 57 96 26 316 24 198 b 123 4 69 59 87 23 b 229 37 168 -21 206 -6 b 266 166 250 76 259 123 b 279 338 275 223 279 281 b 259 513 279 397 275 457 b 182 618 247 557 227 599 z m 169 591 b 169 591 169 591 169 591 b 171 590 170 590 171 590 b 169 591 170 590 170 590 z m 189 104 b 146 30 181 79 170 44 b 142 28 146 30 143 29 b 138 33 141 30 138 32 b 117 73 130 42 122 60 b 89 359 83 161 83 266 b 116 514 93 411 100 464 b 166 592 122 533 139 585 b 166 592 166 592 166 592 b 168 592 166 592 167 592 b 168 591 168 591 168 591 b 168 591 168 591 168 591 b 168 591 168 591 168 591 b 169 591 169 591 169 591 b 168 591 168 591 168 591 b 169 590 169 591 169 590 b 171 589 169 590 170 589 b 180 574 175 583 176 582 b 199 527 189 560 194 544 b 218 393 211 484 216 438 b 189 104 222 297 218 196 z "},"1":{"ha":129,"x_min":0,"x_max":0,"o":"m 83 585 b 42 599 82 596 44 612 b 34 311 31 504 35 406 b 34 16 34 213 32 114 b 95 0 35 -4 94 -23 b 93 292 96 97 94 194 b 83 585 91 389 95 488 z "},"2":{"ha":313,"x_min":0,"x_max":0,"o":"m 254 24 b 90 23 199 25 145 24 b 178 196 122 79 151 138 b 259 406 210 264 243 333 b 242 569 271 459 273 522 b 94 612 212 615 143 640 b 34 507 57 591 41 547 b 75 491 32 493 71 477 b 116 565 83 517 97 546 b 163 590 128 579 144 590 b 202 548 186 591 196 567 b 191 391 219 496 207 442 b 115 212 172 329 144 270 b 19 26 85 149 52 88 b 71 -3 11 11 52 -10 b 282 -6 142 -5 212 -7 b 289 10 293 -6 295 3 b 254 24 281 20 266 24 z "},"3":{"ha":308,"x_min":0,"x_max":0,"o":"m 151 468 b 228 604 172 516 197 562 b 188 630 238 618 195 630 b 54 623 143 629 99 626 b 49 610 45 623 44 616 b 77 599 54 602 68 599 b 158 598 104 599 131 598 b 92 479 132 561 110 521 b 120 453 87 469 104 457 b 205 347 164 435 191 391 b 214 175 224 292 225 232 b 139 32 204 125 183 63 b 109 22 131 26 120 19 b 79 56 96 25 85 46 b 59 147 65 84 60 116 b 18 158 58 161 17 173 b 86 9 21 103 36 40 b 221 40 135 -22 187 -4 b 248 372 292 130 300 271 b 151 468 226 413 193 449 z "},"4":{"ha":374,"x_min":0,"x_max":0,"o":"m 330 265 b 330 283 330 271 330 277 b 324 585 330 383 334 485 b 283 599 322 596 284 612 b 272 302 270 501 273 400 b 271 275 271 293 271 284 b 137 271 227 276 182 272 b 192 426 158 321 174 375 b 253 613 214 487 238 549 b 213 629 257 627 220 642 b 138 448 183 571 162 508 b 70 264 115 387 87 326 b 113 236 65 246 101 235 b 270 239 165 239 218 237 b 268 -2 269 159 267 78 b 328 -18 268 -22 328 -42 b 330 243 330 69 330 156 b 331 244 330 243 331 243 b 330 265 350 246 341 257 z "},"5":{"ha":326,"x_min":0,"x_max":0,"o":"m 106 447 b 110 597 109 497 111 548 b 258 596 159 596 208 594 b 264 612 268 597 270 605 b 229 626 256 622 241 626 b 88 623 182 628 135 625 b 53 618 73 630 54 631 b 48 436 47 558 47 496 b 101 414 49 421 88 405 b 167 401 124 414 147 414 b 200 365 181 392 191 379 b 237 253 221 332 232 292 b 175 51 244 187 237 91 b 92 56 148 34 113 29 b 66 147 71 81 65 115 b 25 158 66 160 25 173 b 128 12 24 90 59 27 b 269 76 186 -1 241 26 b 250 368 317 161 307 289 b 106 447 216 414 162 444 z "},"6":{"ha":338,"x_min":0,"x_max":0,"o":"m 262 293 b 119 315 220 326 165 332 b 222 594 146 411 183 503 b 160 619 231 614 170 639 b 44 300 111 518 71 409 b 99 13 22 208 4 71 b 236 3 139 -11 193 -19 b 301 84 268 19 289 51 b 262 293 326 152 325 246 z m 248 105 b 198 38 238 79 222 53 b 151 26 184 29 167 25 b 121 41 134 27 131 29 b 92 163 94 74 90 122 b 99 227 92 184 95 206 b 125 266 105 242 114 255 b 231 280 152 293 200 309 b 248 105 276 239 268 156 z "},"7":{"ha":347,"x_min":0,"x_max":0,"o":"m 286 621 b 78 612 218 619 147 621 b 98 586 53 609 87 587 b 268 586 154 582 211 584 b 206 320 247 497 226 409 b 172 174 195 271 184 222 b 138 24 161 124 147 74 b 195 1 135 4 189 -18 b 228 147 208 49 217 98 b 263 297 240 197 251 247 b 329 593 285 395 307 494 b 286 621 334 611 299 621 z "},"8":{"ha":346,"x_min":0,"x_max":0,"o":"m 220 322 b 221 322 221 322 221 322 b 283 446 250 358 274 400 b 265 592 293 491 293 553 b 138 628 238 631 182 645 b 74 537 100 613 81 575 b 142 366 60 465 97 413 b 139 366 141 366 140 366 b 40 244 94 342 60 290 b 38 100 21 198 20 146 b 302 70 81 -9 246 -51 b 293 234 327 123 321 184 b 220 322 274 268 248 296 z m 112 506 b 166 603 116 543 131 586 b 233 585 191 615 220 613 b 244 503 245 561 246 529 b 184 357 240 450 216 399 b 172 369 180 361 176 365 b 112 506 136 407 107 452 z m 267 114 b 215 44 257 86 240 61 b 137 37 194 30 160 22 b 95 192 91 67 82 143 b 130 266 102 219 115 243 b 180 328 145 289 163 308 b 221 286 195 314 209 300 b 267 114 263 238 288 177 z "},"9":{"ha":336,"x_min":0,"x_max":0,"o":"m 233 603 b 96 611 193 627 139 633 b 33 528 65 594 44 561 b 76 319 9 460 13 366 b 220 300 119 288 174 282 b 123 20 195 204 160 112 b 185 -5 115 0 176 -25 b 294 317 232 97 270 207 b 233 603 314 409 329 546 z m 107 332 b 86 507 61 372 68 456 b 135 576 96 534 111 560 b 182 589 148 585 165 589 b 212 575 198 589 203 585 b 244 454 240 544 245 494 b 239 389 244 433 242 411 b 213 350 232 375 224 361 b 107 332 187 322 139 305 z "},"\u0000":{"ha":0,"x_min":0,"x_max":0,"o":""},"\n":{"ha":0,"x_min":0,"x_max":0,"o":""},"\r":{"ha":0,"x_min":0,"x_max":0,"o":""}," ":{"ha":197,"x_min":0,"x_max":0,"o":""},"!":{"ha":151,"x_min":0,"x_max":0,"o":"m 120 672 b 65 690 118 688 73 709 b 53 619 55 670 56 641 b 46 550 50 596 48 573 b 36 398 41 499 38 449 b 39 98 32 299 28 197 b 89 85 41 83 88 65 b 94 379 92 183 89 281 b 105 522 97 427 101 474 b 113 599 108 547 110 573 b 120 672 116 622 123 649 z m 90 -3 b 64 18 87 8 74 15 b 36 15 58 20 38 25 b 35 -13 34 6 35 -4 b 37 -42 35 -23 35 -32 b 93 -57 39 -59 92 -80 b 92 -30 93 -48 93 -39 b 90 -3 92 -21 92 -11 z "},"\"":{"ha":186,"x_min":0,"x_max":0,"o":"m 110 628 b 87 558 112 607 113 567 b 86 558 86 558 86 558 b 102 614 96 575 102 598 b 47 628 102 633 45 648 b 23 558 49 607 50 567 b 25 541 13 555 20 545 b 57 533 33 535 47 530 b 82 552 67 536 75 543 b 89 541 82 548 86 544 b 120 533 97 535 110 530 b 165 614 150 541 165 586 b 110 628 165 633 108 648 z "},"“":{"ha":186,"x_min":0,"x_max":0,"o":"m 110 628 b 87 558 112 607 113 567 b 86 558 86 558 86 558 b 102 614 96 575 102 598 b 47 628 102 633 45 648 b 23 558 49 607 50 567 b 25 541 13 555 20 545 b 57 533 33 535 47 530 b 82 552 67 536 75 543 b 89 541 82 548 86 544 b 120 533 97 535 110 530 b 165 614 150 541 165 586 b 110 628 165 633 108 648 z "},"”":{"ha":186,"x_min":0,"x_max":0,"o":"m 110 628 b 87 558 112 607 113 567 b 86 558 86 558 86 558 b 102 614 96 575 102 598 b 47 628 102 633 45 648 b 23 558 49 607 50 567 b 25 541 13 555 20 545 b 57 533 33 535 47 530 b 82 552 67 536 75 543 b 89 541 82 548 86 544 b 120 533 97 535 110 530 b 165 614 150 541 165 586 b 110 628 165 633 108 648 z "},"#":{"ha":322,"x_min":0,"x_max":0,"o":"m 298 367 b 267 380 292 376 277 380 b 247 379 260 380 254 379 b 249 388 248 382 248 385 b 264 479 255 418 263 449 b 218 495 265 493 224 509 b 195 405 206 467 201 435 b 189 377 193 396 191 386 b 164 376 181 377 172 376 b 185 473 172 408 180 441 b 138 492 188 490 145 508 b 102 374 122 455 112 414 b 67 372 91 373 79 373 b 62 358 57 372 56 365 b 92 346 68 350 82 345 b 96 346 94 346 95 346 b 90 314 94 335 92 324 b 88 307 89 311 89 309 b 26 298 67 305 47 302 b 29 281 15 297 24 284 b 61 272 37 273 50 270 b 81 275 68 273 75 274 b 58 134 71 228 62 181 b 111 116 57 118 108 100 b 142 282 124 171 131 227 b 172 284 152 283 162 284 b 151 134 163 234 154 184 b 202 117 150 119 198 102 b 230 285 214 173 220 229 b 267 283 242 285 255 284 b 281 294 275 283 285 285 b 252 311 278 304 261 310 b 234 311 246 311 240 311 b 242 351 237 325 239 338 b 292 353 258 352 275 352 b 298 367 302 353 303 360 z m 177 314 b 177 312 177 314 177 313 b 148 311 167 312 157 312 b 157 348 151 324 154 336 b 184 349 166 348 175 349 b 177 314 181 337 179 326 z "},"$":{"ha":319,"x_min":0,"x_max":0,"o":"m 277 166 b 179 318 255 223 216 270 b 193 631 180 422 185 527 b 196 630 194 631 195 630 b 248 516 234 609 242 555 b 288 506 250 504 289 490 b 262 609 286 542 284 578 b 196 659 246 632 222 649 b 201 712 197 677 199 694 b 161 722 202 724 163 738 b 156 668 159 704 157 686 b 27 556 91 672 37 623 b 137 302 12 454 77 379 b 144 26 136 210 138 118 b 82 56 120 25 98 34 b 46 71 74 65 58 71 b 33 58 38 71 27 68 b 146 -11 55 19 100 -5 b 148 -36 146 -19 147 -28 b 187 -46 148 -49 188 -61 b 186 -12 187 -35 186 -23 b 216 -5 196 -11 206 -8 b 285 54 245 5 272 25 b 277 166 300 90 290 131 z m 139 372 b 99 582 98 433 63 511 b 153 632 108 601 129 623 b 139 372 146 546 141 459 z m 183 39 b 179 246 180 108 179 177 b 225 137 201 212 218 177 b 183 39 231 97 219 59 z "},"%":{"ha":344,"x_min":0,"x_max":0,"o":"m 276 631 b 20 -5 176 426 95 211 b 74 -27 14 -23 68 -44 b 329 610 149 190 238 400 b 276 631 337 627 284 649 z m 39 471 b 145 441 52 429 112 416 b 182 555 178 466 206 516 b 113 593 168 578 140 592 b 90 593 104 596 95 597 b 86 589 89 591 87 590 b 64 576 78 586 70 582 b 64 564 60 572 60 568 b 39 471 44 536 29 502 z m 94 506 b 119 555 100 524 108 541 b 128 560 122 557 125 558 b 132 561 130 560 131 560 b 134 559 133 560 133 559 b 136 519 141 547 140 532 b 96 466 129 499 113 478 b 90 463 95 466 93 464 b 89 468 89 464 89 466 b 94 506 87 481 91 494 z m 82 459 b 82 460 82 459 82 459 b 82 459 82 460 82 459 z m 223 157 b 188 165 213 164 195 169 b 149 53 151 142 134 95 b 252 5 162 14 213 -16 b 285 120 287 24 302 85 b 223 157 273 145 248 156 z m 236 94 b 228 61 235 83 232 71 b 216 42 225 54 221 47 b 211 37 214 40 212 39 b 205 35 208 37 206 36 b 204 38 205 36 204 37 b 199 54 201 43 200 48 b 199 87 197 65 197 76 b 208 113 201 96 204 105 b 209 114 208 113 208 113 b 234 126 213 115 234 125 b 236 94 240 122 237 99 z "},"&":{"ha":503,"x_min":0,"x_max":0,"o":"m 431 -33 b 347 106 401 13 373 59 b 369 172 357 127 365 150 b 348 283 377 210 373 251 b 246 323 324 312 283 329 b 241 322 244 322 243 322 b 200 424 227 355 213 389 b 192 447 198 432 195 439 b 211 493 199 462 205 478 b 252 609 226 531 239 570 b 257 714 263 642 279 682 b 175 744 239 739 204 752 b 121 673 143 735 128 703 b 136 494 107 613 118 552 b 48 294 106 427 73 362 b 56 71 20 223 8 137 b 244 3 96 14 175 -23 b 327 72 278 16 306 41 b 389 -28 347 38 368 5 b 418 -43 395 -37 407 -42 b 431 -33 424 -44 437 -42 z m 173 679 b 185 702 176 687 180 695 b 207 719 189 706 202 719 b 211 711 208 718 209 715 b 213 699 212 707 213 703 b 205 662 214 686 209 674 b 162 556 191 626 177 591 b 173 679 156 598 157 640 z m 286 96 b 123 57 252 46 170 -2 b 115 267 75 116 90 202 b 170 397 132 311 151 354 b 209 305 182 366 195 335 b 193 122 164 264 172 170 b 235 118 199 110 243 99 b 225 233 219 154 215 195 b 232 253 227 239 229 246 b 300 120 253 207 276 163 b 286 96 296 111 291 103 z m 327 197 b 318 160 325 185 322 172 b 256 288 296 202 275 244 b 293 295 266 296 279 300 b 327 197 328 282 332 227 z "},"'":{"ha":124,"x_min":0,"x_max":0,"o":"m 47 628 b 23 558 49 607 50 567 b 25 541 13 555 20 545 b 57 533 33 535 47 530 b 102 614 86 541 101 586 b 47 628 102 633 45 648 z "},"‘":{"ha":124,"x_min":0,"x_max":0,"o":"m 47 628 b 23 558 49 607 50 567 b 25 541 13 555 20 545 b 57 533 33 535 47 530 b 102 614 86 541 101 586 b 47 628 102 633 45 648 z "},"’":{"ha":124,"x_min":0,"x_max":0,"o":"m 47 628 b 23 558 49 607 50 567 b 25 541 13 555 20 545 b 57 533 33 535 47 530 b 102 614 86 541 101 586 b 47 628 102 633 45 648 z "},"(":{"ha":169,"x_min":0,"x_max":0,"o":"m 172 749 b 128 766 177 763 134 781 b 33 358 72 636 42 500 b 102 -22 26 231 28 87 b 140 -43 110 -34 126 -42 b 158 -28 150 -44 164 -41 b 154 -20 156 -26 155 -23 b 149 -14 153 -18 151 -16 b 89 344 85 90 83 225 b 172 749 95 480 125 620 z "},")":{"ha":176,"x_min":0,"x_max":0,"o":"m 37 738 b 2 757 31 749 14 756 b -15 744 -7 758 -22 756 b 13 -32 114 508 122 212 b 65 -53 5 -49 57 -71 b 37 738 181 199 170 495 z "},"*":{"ha":236,"x_min":0,"x_max":0,"o":"m 168 583 b 111 531 147 570 128 550 b 95 555 106 539 101 547 b 60 574 88 566 73 573 b 44 561 53 575 36 573 b 75 510 54 544 65 527 b 30 510 60 510 45 510 b 24 495 20 510 19 502 b 55 483 30 487 45 483 b 71 483 60 483 66 483 b 51 455 64 474 57 464 b 94 437 43 444 84 424 b 110 457 99 444 104 450 b 137 418 118 444 127 431 b 171 399 145 407 158 400 b 187 412 179 398 193 400 b 143 484 174 436 159 460 b 164 484 150 484 157 484 b 170 499 174 484 175 492 b 157 508 167 503 162 506 b 213 558 175 525 196 540 b 168 583 227 574 181 591 z "},"+":{"ha":222,"x_min":0,"x_max":0,"o":"m 198 295 b 165 308 191 304 176 309 b 153 308 161 308 157 308 b 150 387 154 335 156 363 b 100 404 148 400 105 422 b 94 305 91 374 94 337 b 27 302 72 304 50 303 b 21 287 17 302 16 294 b 53 274 28 279 43 274 b 93 276 66 275 80 275 b 93 191 93 247 91 219 b 150 176 94 172 148 153 b 152 278 152 210 152 244 b 192 279 165 278 178 279 b 198 295 202 280 204 288 z "},",":{"ha":124,"x_min":0,"x_max":0,"o":"m 94 17 b 102 47 99 26 106 37 b 65 68 98 60 78 68 b 26 20 44 69 19 41 b 32 11 28 17 29 14 b 17 -2 27 6 22 2 b 6 -7 11 -1 7 -3 b 5 -10 5 -8 5 -9 b 46 -30 0 -27 36 -36 b 75 -9 57 -25 67 -17 b 94 3 83 -8 90 -5 b 92 13 95 6 94 10 b 94 17 93 14 93 16 z "},"-":{"ha":246,"x_min":0,"x_max":0,"o":"m 224 339 b 186 355 215 350 199 354 b 27 359 133 356 80 358 b 30 333 4 360 21 339 b 36 330 32 332 34 331 b 70 324 44 325 61 318 b 72 326 71 325 71 325 b 217 321 120 324 168 323 b 224 339 229 321 231 331 z "},".":{"ha":99,"x_min":0,"x_max":0,"o":"m 80 17 b 79 37 80 24 79 30 b 69 51 79 42 72 49 b 46 62 63 56 54 60 b 18 53 37 64 18 67 b 18 30 18 45 18 37 b 24 20 18 26 22 22 b 39 9 28 15 34 12 b 72 4 49 5 62 0 b 73 4 73 4 73 4 b 80 10 76 5 79 7 b 80 17 81 12 80 15 z "},"/":{"ha":414,"x_min":0,"x_max":0,"o":"m 289 620 b 229 471 266 572 248 521 b 173 321 210 422 191 371 b 120 173 155 272 137 223 b 95 97 112 148 103 122 b 70 16 86 70 75 43 b 124 -6 66 -3 115 -24 b 150 70 135 18 142 45 b 176 146 159 95 168 121 b 230 298 194 197 212 247 b 285 445 248 347 266 396 b 344 598 304 496 327 546 b 289 620 350 617 298 638 z "},":":{"ha":122,"x_min":0,"x_max":0,"o":"m 85 460 b 88 491 89 469 87 481 b 88 506 88 496 88 501 b 79 524 87 514 84 518 b 32 536 69 536 46 544 b 28 535 30 536 29 535 b 25 527 25 533 24 530 b 24 503 25 519 24 511 b 25 480 24 496 23 487 b 54 456 29 467 42 460 b 85 460 62 454 81 449 z m 97 279 b 96 294 97 284 97 289 b 87 311 95 302 92 306 b 40 324 77 323 54 332 b 33 297 30 319 33 307 b 36 268 34 288 33 277 b 64 245 41 256 53 249 b 96 249 72 243 91 238 b 97 279 99 258 97 269 z "},";":{"ha":143,"x_min":0,"x_max":0,"o":"m 84 424 b 110 428 91 422 106 419 b 113 491 118 446 113 472 b 47 508 112 513 47 534 b 54 443 47 487 46 464 b 84 424 58 433 75 426 z m 116 275 b 62 312 112 298 85 314 b 63 276 35 310 46 285 b 61 268 62 272 61 269 b 52 249 59 261 56 254 b 39 237 48 244 44 240 b 24 229 35 234 28 233 b 46 205 15 218 38 207 b 116 275 85 195 123 236 z "},"<":{"ha":200,"x_min":0,"x_max":0,"o":"m 169 303 b 80 373 140 327 110 350 b 166 497 116 407 151 450 b 116 517 172 514 125 532 b 22 393 87 472 63 429 b 29 373 15 386 24 377 b 133 292 63 346 97 318 b 171 282 142 286 160 277 b 169 303 183 288 176 297 z "},"=":{"ha":253,"x_min":0,"x_max":0,"o":"m 68 366 b 200 376 112 375 156 377 b 217 389 210 375 221 377 b 182 409 213 400 192 408 b 26 398 130 413 77 409 b 29 377 13 395 23 381 b 68 366 39 368 54 364 z m 232 310 b 197 329 228 321 207 328 b 114 332 169 332 141 333 b 34 320 89 331 57 330 b 67 290 10 309 58 289 b 141 298 92 291 116 297 b 215 296 166 300 190 299 b 232 310 225 295 236 298 z "},">":{"ha":183,"x_min":0,"x_max":0,"o":"m 157 409 b 68 500 127 439 98 470 b 31 515 59 509 44 517 b 24 498 20 514 15 506 b 102 416 50 470 76 443 b 52 330 75 395 60 363 b 106 308 47 310 102 291 b 159 394 114 342 129 374 b 157 409 165 397 160 405 z "},"?":{"ha":331,"x_min":0,"x_max":0,"o":"m 183 65 b 306 625 181 260 329 428 b 158 771 297 701 243 778 b 27 602 77 765 38 671 b 34 452 19 553 21 500 b 71 396 40 429 50 409 b 127 394 88 386 110 382 b 92 418 139 402 108 420 b 91 422 92 419 92 420 b 87 435 90 426 88 430 b 82 460 85 443 83 451 b 75 519 78 479 76 499 b 86 632 74 557 75 595 b 134 718 95 663 110 695 b 205 739 152 735 181 752 b 249 656 234 725 244 685 b 248 543 255 619 254 580 b 178 329 236 468 206 399 b 123 81 147 250 120 167 b 183 65 123 61 183 42 z m 93 416 b 93 416 93 415 93 414 z m 176 -16 b 145 -4 168 -9 156 -2 b 141 -4 144 -4 142 -4 b 129 -14 134 -5 129 -6 b 128 -60 128 -29 126 -45 b 155 -83 129 -72 146 -79 b 185 -79 161 -84 183 -90 b 186 -37 188 -66 187 -51 b 176 -16 186 -27 184 -22 z "},"@":{"ha":783,"x_min":0,"x_max":0,"o":"m 667 341 b 350 44 635 191 515 43 b 135 151 265 45 185 81 b 72 377 88 216 70 298 b 307 725 75 523 154 687 b 536 642 391 745 493 722 b 539 426 570 576 560 494 b 490 319 527 388 511 352 b 443 271 476 298 462 284 b 437 282 441 275 438 280 b 430 336 431 299 430 318 b 442 436 430 370 435 403 b 381 461 446 458 386 481 b 380 456 381 459 380 458 b 312 521 371 489 353 517 b 224 411 253 526 232 457 b 229 334 219 385 215 357 b 296 300 242 312 271 296 b 365 376 330 304 352 341 b 401 254 361 330 368 282 b 497 242 429 230 467 219 b 553 313 521 260 539 288 b 605 553 593 384 617 471 b 428 748 592 652 524 721 b 154 688 332 774 229 754 b 39 487 95 636 57 563 b 58 217 18 398 22 302 b 274 30 97 124 177 57 b 491 38 345 10 422 10 b 690 244 582 76 652 154 b 714 322 700 270 708 296 b 667 341 717 340 670 356 z m 335 437 b 292 352 328 406 315 375 b 285 347 290 351 288 349 b 288 385 285 360 286 372 b 319 476 293 414 298 453 b 329 484 319 477 325 481 b 332 478 330 482 331 480 b 341 442 337 467 339 454 b 335 437 338 441 335 439 z m 434 266 b 434 266 434 266 434 266 b 434 266 434 266 434 266 z "},"A":{"ha":293,"x_min":0,"x_max":0,"o":"m 256 416 b 232 569 251 467 246 520 b 181 652 223 601 210 635 b 29 272 43 732 31 332 b 27 233 28 259 28 246 b 22 220 18 232 18 226 b 27 215 23 218 25 217 b 26 9 25 147 25 78 b 67 -1 27 -4 67 -17 b 67 208 66 68 65 138 b 202 209 112 207 157 208 b 203 10 201 143 198 76 b 262 -10 204 -7 259 -28 b 266 212 271 63 267 138 b 256 416 264 280 262 348 z m 166 633 b 166 633 168 635 168 633 z m 156 637 b 156 636 156 637 156 637 b 156 637 156 637 156 637 z m 68 235 b 90 468 71 313 77 391 b 118 573 96 504 104 540 b 159 630 126 595 137 620 b 160 630 160 630 160 630 b 162 628 161 630 161 629 b 176 587 169 616 173 601 b 195 452 188 543 192 497 b 202 243 201 382 202 313 b 202 234 202 240 202 237 b 194 235 199 235 196 235 b 68 235 152 235 110 236 z "},"À":{"ha":293,"x_min":0,"x_max":0,"o":"m 256 416 b 232 569 251 467 246 520 b 181 652 223 601 210 635 b 29 272 43 732 31 332 b 27 233 28 259 28 246 b 22 220 18 232 18 226 b 27 215 23 218 25 217 b 26 9 25 147 25 78 b 67 -1 27 -4 67 -17 b 67 208 66 68 65 138 b 202 209 112 207 157 208 b 203 10 201 143 198 76 b 262 -10 204 -7 259 -28 b 266 212 271 63 267 138 b 256 416 264 280 262 348 z m 166 633 b 166 633 168 635 168 633 z m 156 637 b 156 636 156 637 156 637 b 156 637 156 637 156 637 z m 68 235 b 90 468 71 313 77 391 b 118 573 96 504 104 540 b 159 630 126 595 137 620 b 160 630 160 630 160 630 b 162 628 161 630 161 629 b 176 587 169 616 173 601 b 195 452 188 543 192 497 b 202 243 201 382 202 313 b 202 234 202 240 202 237 b 194 235 199 235 196 235 b 68 235 152 235 110 236 z "},"Á":{"ha":293,"x_min":0,"x_max":0,"o":"m 256 416 b 232 569 251 467 246 520 b 181 652 223 601 210 635 b 29 272 43 732 31 332 b 27 233 28 259 28 246 b 22 220 18 232 18 226 b 27 215 23 218 25 217 b 26 9 25 147 25 78 b 67 -1 27 -4 67 -17 b 67 208 66 68 65 138 b 202 209 112 207 157 208 b 203 10 201 143 198 76 b 262 -10 204 -7 259 -28 b 266 212 271 63 267 138 b 256 416 264 280 262 348 z m 166 633 b 166 633 168 635 168 633 z m 156 637 b 156 636 156 637 156 637 b 156 637 156 637 156 637 z m 68 235 b 90 468 71 313 77 391 b 118 573 96 504 104 540 b 159 630 126 595 137 620 b 160 630 160 630 160 630 b 162 628 161 630 161 629 b 176 587 169 616 173 601 b 195 452 188 543 192 497 b 202 243 201 382 202 313 b 202 234 202 240 202 237 b 194 235 199 235 196 235 b 68 235 152 235 110 236 z "},"Â":{"ha":293,"x_min":0,"x_max":0,"o":"m 256 416 b 232 569 251 467 246 520 b 181 652 223 601 210 635 b 29 272 43 732 31 332 b 27 233 28 259 28 246 b 22 220 18 232 18 226 b 27 215 23 218 25 217 b 26 9 25 147 25 78 b 67 -1 27 -4 67 -17 b 67 208 66 68 65 138 b 202 209 112 207 157 208 b 203 10 201 143 198 76 b 262 -10 204 -7 259 -28 b 266 212 271 63 267 138 b 256 416 264 280 262 348 z m 166 633 b 166 633 168 635 168 633 z m 156 637 b 156 636 156 637 156 637 b 156 637 156 637 156 637 z m 68 235 b 90 468 71 313 77 391 b 118 573 96 504 104 540 b 159 630 126 595 137 620 b 160 630 160 630 160 630 b 162 628 161 630 161 629 b 176 587 169 616 173 601 b 195 452 188 543 192 497 b 202 243 201 382 202 313 b 202 234 202 240 202 237 b 194 235 199 235 196 235 b 68 235 152 235 110 236 z "},"Ã":{"ha":293,"x_min":0,"x_max":0,"o":"m 256 416 b 232 569 251 467 246 520 b 181 652 223 601 210 635 b 29 272 43 732 31 332 b 27 233 28 259 28 246 b 22 220 18 232 18 226 b 27 215 23 218 25 217 b 26 9 25 147 25 78 b 67 -1 27 -4 67 -17 b 67 208 66 68 65 138 b 202 209 112 207 157 208 b 203 10 201 143 198 76 b 262 -10 204 -7 259 -28 b 266 212 271 63 267 138 b 256 416 264 280 262 348 z m 166 633 b 166 633 168 635 168 633 z m 156 637 b 156 636 156 637 156 637 b 156 637 156 637 156 637 z m 68 235 b 90 468 71 313 77 391 b 118 573 96 504 104 540 b 159 630 126 595 137 620 b 160 630 160 630 160 630 b 162 628 161 630 161 629 b 176 587 169 616 173 601 b 195 452 188 543 192 497 b 202 243 201 382 202 313 b 202 234 202 240 202 237 b 194 235 199 235 196 235 b 68 235 152 235 110 236 z "},"Ä":{"ha":293,"x_min":0,"x_max":0,"o":"m 256 416 b 232 569 251 467 246 520 b 181 652 223 601 210 635 b 29 272 43 732 31 332 b 27 233 28 259 28 246 b 22 220 18 232 18 226 b 27 215 23 218 25 217 b 26 9 25 147 25 78 b 67 -1 27 -4 67 -17 b 67 208 66 68 65 138 b 202 209 112 207 157 208 b 203 10 201 143 198 76 b 262 -10 204 -7 259 -28 b 266 212 271 63 267 138 b 256 416 264 280 262 348 z m 166 633 b 166 633 168 635 168 633 z m 156 637 b 156 636 156 637 156 637 b 156 637 156 637 156 637 z m 68 235 b 90 468 71 313 77 391 b 118 573 96 504 104 540 b 159 630 126 595 137 620 b 160 630 160 630 160 630 b 162 628 161 630 161 629 b 176 587 169 616 173 601 b 195 452 188 543 192 497 b 202 243 201 382 202 313 b 202 234 202 240 202 237 b 194 235 199 235 196 235 b 68 235 152 235 110 236 z "},"Å":{"ha":293,"x_min":0,"x_max":0,"o":"m 256 416 b 232 569 251 467 246 520 b 181 652 223 601 210 635 b 29 272 43 732 31 332 b 27 233 28 259 28 246 b 22 220 18 232 18 226 b 27 215 23 218 25 217 b 26 9 25 147 25 78 b 67 -1 27 -4 67 -17 b 67 208 66 68 65 138 b 202 209 112 207 157 208 b 203 10 201 143 198 76 b 262 -10 204 -7 259 -28 b 266 212 271 63 267 138 b 256 416 264 280 262 348 z m 166 633 b 166 633 168 635 168 633 z m 156 637 b 156 636 156 637 156 637 b 156 637 156 637 156 637 z m 68 235 b 90 468 71 313 77 391 b 118 573 96 504 104 540 b 159 630 126 595 137 620 b 160 630 160 630 160 630 b 162 628 161 630 161 629 b 176 587 169 616 173 601 b 195 452 188 543 192 497 b 202 243 201 382 202 313 b 202 234 202 240 202 237 b 194 235 199 235 196 235 b 68 235 152 235 110 236 z "},"B":{"ha":296,"x_min":0,"x_max":0,"o":"m 229 314 b 161 351 210 332 186 345 b 258 517 212 392 250 452 b 90 660 271 618 174 655 b 79 659 86 661 82 660 b 49 661 68 666 50 670 b 38 349 37 558 40 453 b 34 29 36 242 33 136 b 33 29 34 29 33 29 b 42 2 9 27 32 6 b 283 189 163 -45 283 72 b 229 314 284 237 265 282 z m 196 598 b 194 494 216 567 206 526 b 96 371 175 443 140 401 b 92 636 97 459 99 548 b 106 632 97 634 102 632 b 196 598 138 630 176 628 z m 224 179 b 160 66 216 136 194 95 b 105 35 144 52 126 41 b 95 32 102 34 98 33 b 96 306 97 124 96 215 b 105 308 100 306 103 307 b 224 179 192 363 237 249 z "},"C":{"ha":244,"x_min":0,"x_max":0,"o":"m 123 594 b 138 620 127 603 131 612 b 156 632 144 628 150 629 b 162 623 158 629 162 624 b 177 592 168 614 173 602 b 193 523 184 569 189 546 b 235 512 195 509 236 496 b 194 640 232 556 227 607 b 93 652 169 664 121 678 b 59 588 75 635 66 610 b 36 483 48 554 41 518 b 26 228 24 399 21 313 b 63 36 29 166 32 92 b 161 -8 81 3 124 -23 b 207 52 185 2 198 29 b 234 147 220 82 227 115 b 175 171 238 169 179 190 b 127 39 165 128 156 73 b 119 31 126 38 122 34 b 117 35 118 32 117 34 b 85 199 93 84 89 145 b 87 418 80 272 81 345 b 123 594 92 476 99 539 z m 154 635 b 155 634 154 635 154 634 b 154 635 154 634 154 634 z m 127 19 b 127 19 127 19 127 19 b 127 19 127 19 127 19 z m 111 26 b 110 26 110 25 110 25 b 111 26 110 26 110 26 z "},"Ç":{"ha":244,"x_min":0,"x_max":0,"o":"m 123 594 b 138 620 127 603 131 612 b 156 632 144 628 150 629 b 162 623 158 629 162 624 b 177 592 168 614 173 602 b 193 523 184 569 189 546 b 235 512 195 509 236 496 b 194 640 232 556 227 607 b 93 652 169 664 121 678 b 59 588 75 635 66 610 b 36 483 48 554 41 518 b 26 228 24 399 21 313 b 63 36 29 166 32 92 b 161 -8 81 3 124 -23 b 207 52 185 2 198 29 b 234 147 220 82 227 115 b 175 171 238 169 179 190 b 127 39 165 128 156 73 b 119 31 126 38 122 34 b 117 35 118 32 117 34 b 85 199 93 84 89 145 b 87 418 80 272 81 345 b 123 594 92 476 99 539 z m 154 635 b 155 634 154 635 154 634 b 154 635 154 634 154 634 z m 127 19 b 127 19 127 19 127 19 b 127 19 127 19 127 19 z m 111 26 b 110 26 110 25 110 25 b 111 26 110 26 110 26 z "},"D":{"ha":289,"x_min":0,"x_max":0,"o":"m 51 667 b 43 654 41 668 39 661 b 34 338 33 550 35 443 b 32 16 33 231 31 123 b 91 -6 33 -2 81 -20 b 267 279 195 52 250 165 b 216 582 282 378 276 497 b 51 667 177 637 118 666 z m 163 149 b 93 62 144 116 121 87 b 92 323 94 149 93 236 b 86 638 92 428 95 534 b 217 442 177 629 209 520 b 163 149 229 343 211 237 z "},"E":{"ha":249,"x_min":0,"x_max":0,"o":"m 150 635 b 233 635 177 635 205 634 b 242 651 244 636 248 642 b 209 668 236 661 219 668 b 127 669 181 670 154 669 b 57 666 106 668 79 672 b 45 661 51 667 45 666 b 35 349 33 558 36 453 b 32 29 33 242 31 136 b 43 14 32 24 37 18 b 61 4 49 9 57 5 b 146 -1 88 -3 118 -1 b 233 -1 175 -1 204 -3 b 242 14 244 -1 248 6 b 209 32 236 24 219 31 b 123 32 180 33 151 32 b 93 33 114 32 103 33 b 93 270 94 112 94 191 b 150 269 112 268 131 269 b 233 269 177 268 206 267 b 242 284 244 269 248 276 b 209 302 236 294 219 301 b 127 302 181 303 154 302 b 93 303 117 302 105 303 b 93 330 93 312 93 321 b 87 637 92 432 96 535 b 150 635 107 635 129 636 z "},"È":{"ha":249,"x_min":0,"x_max":0,"o":"m 150 635 b 233 635 177 635 205 634 b 242 651 244 636 248 642 b 209 668 236 661 219 668 b 127 669 181 670 154 669 b 57 666 106 668 79 672 b 45 661 51 667 45 666 b 35 349 33 558 36 453 b 32 29 33 242 31 136 b 43 14 32 24 37 18 b 61 4 49 9 57 5 b 146 -1 88 -3 118 -1 b 233 -1 175 -1 204 -3 b 242 14 244 -1 248 6 b 209 32 236 24 219 31 b 123 32 180 33 151 32 b 93 33 114 32 103 33 b 93 270 94 112 94 191 b 150 269 112 268 131 269 b 233 269 177 268 206 267 b 242 284 244 269 248 276 b 209 302 236 294 219 301 b 127 302 181 303 154 302 b 93 303 117 302 105 303 b 93 330 93 312 93 321 b 87 637 92 432 96 535 b 150 635 107 635 129 636 z "},"É":{"ha":249,"x_min":0,"x_max":0,"o":"m 150 635 b 233 635 177 635 205 634 b 242 651 244 636 248 642 b 209 668 236 661 219 668 b 127 669 181 670 154 669 b 57 666 106 668 79 672 b 45 661 51 667 45 666 b 35 349 33 558 36 453 b 32 29 33 242 31 136 b 43 14 32 24 37 18 b 61 4 49 9 57 5 b 146 -1 88 -3 118 -1 b 233 -1 175 -1 204 -3 b 242 14 244 -1 248 6 b 209 32 236 24 219 31 b 123 32 180 33 151 32 b 93 33 114 32 103 33 b 93 270 94 112 94 191 b 150 269 112 268 131 269 b 233 269 177 268 206 267 b 242 284 244 269 248 276 b 209 302 236 294 219 301 b 127 302 181 303 154 302 b 93 303 117 302 105 303 b 93 330 93 312 93 321 b 87 637 92 432 96 535 b 150 635 107 635 129 636 z "},"Ê":{"ha":249,"x_min":0,"x_max":0,"o":"m 150 635 b 233 635 177 635 205 634 b 242 651 244 636 248 642 b 209 668 236 661 219 668 b 127 669 181 670 154 669 b 57 666 106 668 79 672 b 45 661 51 667 45 666 b 35 349 33 558 36 453 b 32 29 33 242 31 136 b 43 14 32 24 37 18 b 61 4 49 9 57 5 b 146 -1 88 -3 118 -1 b 233 -1 175 -1 204 -3 b 242 14 244 -1 248 6 b 209 32 236 24 219 31 b 123 32 180 33 151 32 b 93 33 114 32 103 33 b 93 270 94 112 94 191 b 150 269 112 268 131 269 b 233 269 177 268 206 267 b 242 284 244 269 248 276 b 209 302 236 294 219 301 b 127 302 181 303 154 302 b 93 303 117 302 105 303 b 93 330 93 312 93 321 b 87 637 92 432 96 535 b 150 635 107 635 129 636 z "},"Ë":{"ha":249,"x_min":0,"x_max":0,"o":"m 150 635 b 233 635 177 635 205 634 b 242 651 244 636 248 642 b 209 668 236 661 219 668 b 127 669 181 670 154 669 b 57 666 106 668 79 672 b 45 661 51 667 45 666 b 35 349 33 558 36 453 b 32 29 33 242 31 136 b 43 14 32 24 37 18 b 61 4 49 9 57 5 b 146 -1 88 -3 118 -1 b 233 -1 175 -1 204 -3 b 242 14 244 -1 248 6 b 209 32 236 24 219 31 b 123 32 180 33 151 32 b 93 33 114 32 103 33 b 93 270 94 112 94 191 b 150 269 112 268 131 269 b 233 269 177 268 206 267 b 242 284 244 269 248 276 b 209 302 236 294 219 301 b 127 302 181 303 154 302 b 93 303 117 302 105 303 b 93 330 93 312 93 321 b 87 637 92 432 96 535 b 150 635 107 635 129 636 z "},"F":{"ha":246,"x_min":0,"x_max":0,"o":"m 152 635 b 236 635 180 635 208 634 b 244 651 246 636 250 642 b 211 668 238 661 222 668 b 130 669 184 670 157 669 b 60 666 108 668 81 672 b 47 661 53 667 47 666 b 35 342 35 556 37 448 b 31 16 33 233 30 125 b 91 0 31 -4 90 -24 b 93 270 93 90 93 180 b 152 269 113 268 132 269 b 236 269 180 268 208 267 b 244 284 246 269 250 276 b 211 302 238 294 222 301 b 130 302 184 303 157 302 b 93 303 118 302 106 303 b 93 323 93 309 93 316 b 89 637 93 427 97 533 b 152 635 110 635 131 636 z "},"G":{"ha":289,"x_min":0,"x_max":0,"o":"m 269 284 b 268 286 269 285 268 285 b 212 302 260 301 221 314 b 173 302 199 302 186 302 b 117 297 156 302 133 305 b 134 274 101 290 127 276 b 196 269 154 268 175 269 b 209 268 200 269 205 269 b 177 65 208 200 205 127 b 148 27 171 51 162 34 b 140 24 145 26 143 25 b 140 24 140 24 140 24 b 140 22 140 24 140 23 b 138 23 140 22 139 23 b 138 23 137 22 137 23 b 138 23 138 23 138 23 b 138 23 138 23 138 23 b 138 23 138 23 138 23 b 136 24 137 24 137 24 b 135 26 135 26 134 26 b 98 98 116 43 105 72 b 80 346 76 178 75 264 b 129 578 85 424 96 507 b 182 636 140 603 156 628 b 185 638 183 636 185 637 b 188 633 186 636 187 635 b 197 617 192 629 194 623 b 207 580 202 605 205 593 b 213 523 210 561 213 542 b 254 512 213 509 253 495 b 228 638 257 554 258 605 b 105 645 197 673 138 679 b 57 553 81 620 68 586 b 29 417 43 509 34 463 b 36 127 17 322 14 221 b 80 28 44 92 56 56 b 205 -1 109 -4 166 -28 b 261 137 246 27 255 92 b 270 272 267 182 270 227 b 269 284 272 275 272 279 z "},"H":{"ha":314,"x_min":0,"x_max":0,"o":"m 233 661 b 221 342 221 556 223 448 b 220 300 221 328 221 314 b 211 302 217 301 214 302 b 130 302 184 303 157 302 b 93 303 118 302 106 303 b 93 323 93 309 93 316 b 88 648 93 431 97 540 b 47 661 87 659 48 674 b 35 342 35 556 37 448 b 31 16 33 233 30 125 b 91 0 31 -4 90 -24 b 93 270 93 90 93 180 b 152 269 113 268 132 269 b 220 268 174 268 197 268 b 217 16 218 184 216 100 b 277 0 217 -4 276 -24 b 279 323 280 108 279 215 b 274 648 279 431 284 540 b 233 661 273 659 234 674 z "},"I":{"ha":128,"x_min":0,"x_max":0,"o":"m 47 661 b 35 342 35 556 37 448 b 31 16 33 233 30 125 b 91 0 31 -4 90 -24 b 93 323 94 108 93 215 b 88 648 93 431 97 540 b 47 661 87 659 48 674 z "},"Ì":{"ha":128,"x_min":0,"x_max":0,"o":"m 47 661 b 35 342 35 556 37 448 b 31 16 33 233 30 125 b 91 0 31 -4 90 -24 b 93 323 94 108 93 215 b 88 648 93 431 97 540 b 47 661 87 659 48 674 z "},"Í":{"ha":128,"x_min":0,"x_max":0,"o":"m 47 661 b 35 342 35 556 37 448 b 31 16 33 233 30 125 b 91 0 31 -4 90 -24 b 93 323 94 108 93 215 b 88 648 93 431 97 540 b 47 661 87 659 48 674 z "},"Î":{"ha":128,"x_min":0,"x_max":0,"o":"m 47 661 b 35 342 35 556 37 448 b 31 16 33 233 30 125 b 91 0 31 -4 90 -24 b 93 323 94 108 93 215 b 88 648 93 431 97 540 b 47 661 87 659 48 674 z "},"Ï":{"ha":128,"x_min":0,"x_max":0,"o":"m 47 661 b 35 342 35 556 37 448 b 31 16 33 233 30 125 b 91 0 31 -4 90 -24 b 93 323 94 108 93 215 b 88 648 93 431 97 540 b 47 661 87 659 48 674 z "},"J":{"ha":267,"x_min":0,"x_max":0,"o":"m 215 645 b 215 647 215 646 215 646 b 215 648 215 647 215 647 b 213 652 215 649 214 651 b 213 652 213 652 213 652 b 179 670 207 662 190 669 b 98 670 152 671 125 670 b 23 665 75 669 45 674 b 40 642 6 658 34 643 b 120 637 66 635 94 637 b 174 636 138 636 156 636 b 182 273 179 515 186 394 b 160 93 180 213 177 151 b 135 41 154 75 148 55 b 116 28 130 35 124 30 b 102 24 115 27 108 25 b 82 59 95 36 87 46 b 70 109 77 75 73 92 b 64 180 67 132 65 156 b 4 195 64 199 4 219 b 41 34 4 142 10 79 b 197 21 76 -15 159 -34 b 236 186 228 67 232 133 b 237 417 242 262 240 340 b 215 645 233 493 226 569 z m 94 25 b 98 24 94 26 95 25 b 94 25 96 24 94 24 z "},"K":{"ha":283,"x_min":0,"x_max":0,"o":"m 244 662 b 94 388 192 571 143 480 b 88 648 94 475 95 562 b 47 661 87 659 48 674 b 35 342 35 556 37 448 b 31 16 33 233 30 125 b 91 0 31 -4 90 -24 b 93 249 93 83 93 166 b 232 10 139 169 186 90 b 257 -4 237 2 248 -3 b 269 6 263 -4 274 -3 b 97 306 212 106 156 207 b 284 645 160 419 224 531 b 244 662 291 657 251 675 z "},"L":{"ha":246,"x_min":0,"x_max":0,"o":"m 220 24 b 131 25 191 26 161 25 b 91 26 119 24 105 26 b 93 323 93 125 93 224 b 88 648 93 431 97 540 b 47 661 87 659 48 674 b 35 342 35 556 37 448 b 31 16 33 233 30 125 b 88 -7 31 -1 75 -18 b 154 -9 110 -9 132 -8 b 245 -9 184 -9 215 -10 b 254 7 256 -8 260 -2 b 220 24 248 17 231 24 z "},"M":{"ha":331,"x_min":0,"x_max":0,"o":"m 291 648 b 249 664 293 663 253 677 b 161 319 218 549 190 434 b 88 648 137 429 114 538 b 88 649 88 648 88 648 b 47 663 85 660 52 672 b 47 658 46 662 46 660 b 47 658 47 658 47 658 b 35 342 35 554 37 447 b 31 16 33 233 30 125 b 91 0 31 -4 90 -24 b 93 323 94 108 93 215 b 94 442 93 363 94 402 b 141 238 110 374 125 306 b 141 237 141 237 141 237 b 180 223 144 224 174 214 b 181 226 180 224 181 225 b 239 446 200 299 220 372 b 238 342 239 411 238 377 b 233 16 236 233 233 125 b 293 0 233 -4 293 -24 b 296 323 296 108 295 215 b 291 648 296 431 300 540 b 291 648 291 648 291 648 z "},"N":{"ha":315,"x_min":0,"x_max":0,"o":"m 234 662 b 222 382 223 570 223 476 b 87 651 178 472 133 562 b 76 660 85 655 81 658 b 47 662 64 666 50 669 b 47 659 47 662 46 660 b 35 342 35 554 37 448 b 31 16 33 233 30 125 b 91 0 31 -4 90 -24 b 93 323 94 108 93 215 b 93 565 93 403 96 484 b 221 313 135 481 178 397 b 217 16 219 214 217 115 b 277 1 217 -3 277 -23 b 280 324 280 108 279 216 b 275 648 280 432 284 541 b 234 662 274 660 235 675 z "},"Ñ":{"ha":315,"x_min":0,"x_max":0,"o":"m 234 662 b 222 382 223 570 223 476 b 87 651 178 472 133 562 b 76 660 85 655 81 658 b 47 662 64 666 50 669 b 47 659 47 662 46 660 b 35 342 35 554 37 448 b 31 16 33 233 30 125 b 91 0 31 -4 90 -24 b 93 323 94 108 93 215 b 93 565 93 403 96 484 b 221 313 135 481 178 397 b 217 16 219 214 217 115 b 277 1 217 -3 277 -23 b 280 324 280 108 279 216 b 275 648 280 432 284 541 b 234 662 274 660 235 675 z "},"O":{"ha":335,"x_min":0,"x_max":0,"o":"m 199 662 b 167 665 192 665 175 671 b 32 458 75 670 43 530 b 51 104 14 344 12 214 b 133 2 66 62 90 21 b 251 39 183 -20 224 -4 b 297 177 276 80 289 130 b 313 362 309 238 314 300 b 289 551 313 425 308 491 b 199 662 274 599 248 644 z m 192 634 b 191 634 192 634 192 634 b 192 634 190 636 191 635 z m 214 105 b 160 30 203 79 186 40 b 151 27 157 28 154 28 b 150 27 149 27 143 30 b 147 28 148 28 147 28 b 145 30 146 28 146 29 b 143 31 144 30 144 31 b 139 35 142 33 140 34 b 112 81 127 48 119 65 b 80 392 72 176 71 292 b 115 559 84 448 94 506 b 181 638 125 585 147 634 b 188 635 184 637 186 635 b 190 634 189 634 189 634 b 192 633 191 634 192 633 b 191 634 192 633 191 633 b 192 633 192 634 192 633 b 192 632 193 632 194 631 b 205 616 199 626 201 623 b 228 567 215 601 222 584 b 252 418 243 519 249 468 b 214 105 257 315 251 203 z "},"Ò":{"ha":335,"x_min":0,"x_max":0,"o":"m 199 662 b 167 665 192 665 175 671 b 32 458 75 670 43 530 b 51 104 14 344 12 214 b 133 2 66 62 90 21 b 251 39 183 -20 224 -4 b 297 177 276 80 289 130 b 313 362 309 238 314 300 b 289 551 313 425 308 491 b 199 662 274 599 248 644 z m 192 634 b 191 634 192 634 192 634 b 192 634 190 636 191 635 z m 214 105 b 160 30 203 79 186 40 b 151 27 157 28 154 28 b 150 27 149 27 143 30 b 147 28 148 28 147 28 b 145 30 146 28 146 29 b 143 31 144 30 144 31 b 139 35 142 33 140 34 b 112 81 127 48 119 65 b 80 392 72 176 71 292 b 115 559 84 448 94 506 b 181 638 125 585 147 634 b 188 635 184 637 186 635 b 190 634 189 634 189 634 b 192 633 191 634 192 633 b 191 634 192 633 191 633 b 192 633 192 634 192 633 b 192 632 193 632 194 631 b 205 616 199 626 201 623 b 228 567 215 601 222 584 b 252 418 243 519 249 468 b 214 105 257 315 251 203 z "},"Ó":{"ha":335,"x_min":0,"x_max":0,"o":"m 199 662 b 167 665 192 665 175 671 b 32 458 75 670 43 530 b 51 104 14 344 12 214 b 133 2 66 62 90 21 b 251 39 183 -20 224 -4 b 297 177 276 80 289 130 b 313 362 309 238 314 300 b 289 551 313 425 308 491 b 199 662 274 599 248 644 z m 192 634 b 191 634 192 634 192 634 b 192 634 190 636 191 635 z m 214 105 b 160 30 203 79 186 40 b 151 27 157 28 154 28 b 150 27 149 27 143 30 b 147 28 148 28 147 28 b 145 30 146 28 146 29 b 143 31 144 30 144 31 b 139 35 142 33 140 34 b 112 81 127 48 119 65 b 80 392 72 176 71 292 b 115 559 84 448 94 506 b 181 638 125 585 147 634 b 188 635 184 637 186 635 b 190 634 189 634 189 634 b 192 633 191 634 192 633 b 191 634 192 633 191 633 b 192 633 192 634 192 633 b 192 632 193 632 194 631 b 205 616 199 626 201 623 b 228 567 215 601 222 584 b 252 418 243 519 249 468 b 214 105 257 315 251 203 z "},"Ô":{"ha":335,"x_min":0,"x_max":0,"o":"m 199 662 b 167 665 192 665 175 671 b 32 458 75 670 43 530 b 51 104 14 344 12 214 b 133 2 66 62 90 21 b 251 39 183 -20 224 -4 b 297 177 276 80 289 130 b 313 362 309 238 314 300 b 289 551 313 425 308 491 b 199 662 274 599 248 644 z m 192 634 b 191 634 192 634 192 634 b 192 634 190 636 191 635 z m 214 105 b 160 30 203 79 186 40 b 151 27 157 28 154 28 b 150 27 149 27 143 30 b 147 28 148 28 147 28 b 145 30 146 28 146 29 b 143 31 144 30 144 31 b 139 35 142 33 140 34 b 112 81 127 48 119 65 b 80 392 72 176 71 292 b 115 559 84 448 94 506 b 181 638 125 585 147 634 b 188 635 184 637 186 635 b 190 634 189 634 189 634 b 192 633 191 634 192 633 b 191 634 192 633 191 633 b 192 633 192 634 192 633 b 192 632 193 632 194 631 b 205 616 199 626 201 623 b 228 567 215 601 222 584 b 252 418 243 519 249 468 b 214 105 257 315 251 203 z "},"Õ":{"ha":335,"x_min":0,"x_max":0,"o":"m 199 662 b 167 665 192 665 175 671 b 32 458 75 670 43 530 b 51 104 14 344 12 214 b 133 2 66 62 90 21 b 251 39 183 -20 224 -4 b 297 177 276 80 289 130 b 313 362 309 238 314 300 b 289 551 313 425 308 491 b 199 662 274 599 248 644 z m 192 634 b 191 634 192 634 192 634 b 192 634 190 636 191 635 z m 214 105 b 160 30 203 79 186 40 b 151 27 157 28 154 28 b 150 27 149 27 143 30 b 147 28 148 28 147 28 b 145 30 146 28 146 29 b 143 31 144 30 144 31 b 139 35 142 33 140 34 b 112 81 127 48 119 65 b 80 392 72 176 71 292 b 115 559 84 448 94 506 b 181 638 125 585 147 634 b 188 635 184 637 186 635 b 190 634 189 634 189 634 b 192 633 191 634 192 633 b 191 634 192 633 191 633 b 192 633 192 634 192 633 b 192 632 193 632 194 631 b 205 616 199 626 201 623 b 228 567 215 601 222 584 b 252 418 243 519 249 468 b 214 105 257 315 251 203 z "},"Ö":{"ha":335,"x_min":0,"x_max":0,"o":"m 199 662 b 167 665 192 665 175 671 b 32 458 75 670 43 530 b 51 104 14 344 12 214 b 133 2 66 62 90 21 b 251 39 183 -20 224 -4 b 297 177 276 80 289 130 b 313 362 309 238 314 300 b 289 551 313 425 308 491 b 199 662 274 599 248 644 z m 192 634 b 191 634 192 634 192 634 b 192 634 190 636 191 635 z m 214 105 b 160 30 203 79 186 40 b 151 27 157 28 154 28 b 150 27 149 27 143 30 b 147 28 148 28 147 28 b 145 30 146 28 146 29 b 143 31 144 30 144 31 b 139 35 142 33 140 34 b 112 81 127 48 119 65 b 80 392 72 176 71 292 b 115 559 84 448 94 506 b 181 638 125 585 147 634 b 188 635 184 637 186 635 b 190 634 189 634 189 634 b 192 633 191 634 192 633 b 191 634 192 633 191 633 b 192 633 192 634 192 633 b 192 632 193 632 194 631 b 205 616 199 626 201 623 b 228 567 215 601 222 584 b 252 418 243 519 249 468 b 214 105 257 315 251 203 z "},"Ø":{"ha":335,"x_min":0,"x_max":0,"o":"m 199 662 b 167 665 192 665 175 671 b 32 458 75 670 43 530 b 51 104 14 344 12 214 b 133 2 66 62 90 21 b 251 39 183 -20 224 -4 b 297 177 276 80 289 130 b 313 362 309 238 314 300 b 289 551 313 425 308 491 b 199 662 274 599 248 644 z m 192 634 b 191 634 192 634 192 634 b 192 634 190 636 191 635 z m 214 105 b 160 30 203 79 186 40 b 151 27 157 28 154 28 b 150 27 149 27 143 30 b 147 28 148 28 147 28 b 145 30 146 28 146 29 b 143 31 144 30 144 31 b 139 35 142 33 140 34 b 112 81 127 48 119 65 b 80 392 72 176 71 292 b 115 559 84 448 94 506 b 181 638 125 585 147 634 b 188 635 184 637 186 635 b 190 634 189 634 189 634 b 192 633 191 634 192 633 b 191 634 192 633 191 633 b 192 633 192 634 192 633 b 192 632 193 632 194 631 b 205 616 199 626 201 623 b 228 567 215 601 222 584 b 252 418 243 519 249 468 b 214 105 257 315 251 203 z "},"P":{"ha":294,"x_min":0,"x_max":0,"o":"m 203 635 b 50 668 158 666 103 674 b 44 652 40 667 38 660 b 51 647 46 650 48 648 b 36 343 39 546 39 444 b 26 16 32 234 27 125 b 86 0 26 -4 85 -24 b 92 202 89 68 91 135 b 101 202 95 202 99 201 b 234 275 154 210 201 232 b 284 402 263 311 278 356 b 203 635 296 485 276 584 z m 92 242 b 94 324 93 269 93 296 b 94 640 96 429 101 535 b 194 601 135 642 169 633 b 234 472 222 565 233 517 b 92 242 236 375 190 270 z "},"Q":{"ha":335,"x_min":0,"x_max":0,"o":"m 199 662 b 167 665 192 665 175 671 b 32 458 75 670 43 530 b 51 104 14 344 12 214 b 133 2 66 62 90 21 b 167 -7 145 -3 156 -6 b 179 -61 171 -25 175 -43 b 220 -72 182 -75 223 -87 b 205 -2 215 -49 210 -25 b 251 39 223 5 238 19 b 297 177 276 80 289 130 b 313 362 309 238 314 300 b 289 551 313 425 308 491 b 199 662 274 599 248 644 z m 192 634 b 191 634 192 634 192 634 b 192 634 190 636 191 635 z m 214 105 b 192 59 208 91 201 74 b 188 78 190 66 189 72 b 148 89 185 92 145 102 b 160 29 152 69 156 49 b 151 27 157 28 154 28 b 150 27 149 27 143 30 b 147 28 148 28 147 28 b 145 30 146 28 146 29 b 143 31 144 30 144 31 b 139 35 142 33 140 34 b 112 81 127 48 119 65 b 80 392 72 176 71 292 b 115 559 84 448 94 506 b 181 638 125 585 147 634 b 188 635 184 637 186 635 b 190 634 189 634 189 634 b 192 633 191 634 192 633 b 191 634 192 633 191 633 b 192 633 192 634 192 633 b 192 632 193 632 194 631 b 205 616 199 626 201 623 b 228 567 215 601 222 584 b 252 418 243 519 249 468 b 214 105 257 315 251 203 z "},"R":{"ha":301,"x_min":0,"x_max":0,"o":"m 207 635 b 54 668 163 666 108 674 b 47 655 45 667 42 661 b 35 342 36 551 37 446 b 31 16 33 234 30 125 b 91 0 31 -4 90 -24 b 93 172 92 57 93 114 b 133 108 106 150 120 129 b 202 6 155 74 176 37 b 246 4 209 -3 256 -18 b 177 110 228 41 200 76 b 112 203 156 141 135 173 b 239 275 162 212 207 234 b 289 402 267 311 283 356 b 207 635 300 485 281 584 z m 93 241 b 93 323 93 269 93 296 b 89 640 94 428 98 535 b 198 601 134 643 171 635 b 238 472 227 565 237 517 b 93 241 240 374 193 268 z "},"S":{"ha":290,"x_min":0,"x_max":0,"o":"m 130 353 b 83 573 86 416 46 498 b 181 622 99 605 144 643 b 233 508 218 600 227 546 b 273 497 235 495 273 482 b 247 600 271 534 269 570 b 166 655 227 627 198 647 b 12 548 90 675 23 623 b 209 129 -13 377 184 284 b 161 27 216 86 202 46 b 66 47 125 10 90 16 b 31 63 59 57 43 63 b 17 49 23 63 12 60 b 201 -13 51 -10 138 -35 b 269 46 230 -3 257 17 b 261 158 285 82 275 123 b 130 353 233 232 176 290 z "},"T":{"ha":232,"x_min":0,"x_max":0,"o":"m 201 664 b 98 664 167 665 132 664 b 49 664 82 664 65 664 b 0 659 33 663 15 665 b 17 636 -17 653 11 637 b 87 631 40 631 63 630 b 81 335 79 533 82 433 b 81 16 81 229 79 122 b 142 0 82 -4 141 -23 b 140 320 143 107 141 213 b 131 631 138 423 141 528 b 226 631 163 630 195 629 b 235 646 237 631 241 638 b 201 664 229 656 212 663 z "},"U":{"ha":321,"x_min":0,"x_max":0,"o":"m 230 656 b 233 399 233 571 235 485 b 201 114 232 305 228 206 b 158 34 193 86 182 53 b 146 27 154 31 151 29 b 139 26 145 27 141 26 b 136 29 138 27 136 29 b 126 45 133 33 129 39 b 95 155 108 78 101 118 b 82 308 87 206 84 257 b 83 642 78 419 80 531 b 41 653 83 655 43 669 b 27 337 31 548 25 443 b 38 174 28 283 31 228 b 71 52 44 133 52 90 b 163 -10 89 17 123 -9 b 240 42 199 -11 224 12 b 275 161 259 78 268 121 b 291 320 284 214 289 267 b 290 641 297 426 296 534 b 230 656 289 661 229 679 z m 137 26 b 136 25 137 25 136 25 b 137 26 137 25 137 26 z m 141 23 b 141 23 141 23 141 23 b 142 23 141 23 142 23 b 141 23 141 23 141 23 z "},"Ù":{"ha":321,"x_min":0,"x_max":0,"o":"m 230 656 b 233 399 233 571 235 485 b 201 114 232 305 228 206 b 158 34 193 86 182 53 b 146 27 154 31 151 29 b 139 26 145 27 141 26 b 136 29 138 27 136 29 b 126 45 133 33 129 39 b 95 155 108 78 101 118 b 82 308 87 206 84 257 b 83 642 78 419 80 531 b 41 653 83 655 43 669 b 27 337 31 548 25 443 b 38 174 28 283 31 228 b 71 52 44 133 52 90 b 163 -10 89 17 123 -9 b 240 42 199 -11 224 12 b 275 161 259 78 268 121 b 291 320 284 214 289 267 b 290 641 297 426 296 534 b 230 656 289 661 229 679 z m 137 26 b 136 25 137 25 136 25 b 137 26 137 25 137 26 z m 141 23 b 141 23 141 23 141 23 b 142 23 141 23 142 23 b 141 23 141 23 141 23 z "},"Ú":{"ha":321,"x_min":0,"x_max":0,"o":"m 230 656 b 233 399 233 571 235 485 b 201 114 232 305 228 206 b 158 34 193 86 182 53 b 146 27 154 31 151 29 b 139 26 145 27 141 26 b 136 29 138 27 136 29 b 126 45 133 33 129 39 b 95 155 108 78 101 118 b 82 308 87 206 84 257 b 83 642 78 419 80 531 b 41 653 83 655 43 669 b 27 337 31 548 25 443 b 38 174 28 283 31 228 b 71 52 44 133 52 90 b 163 -10 89 17 123 -9 b 240 42 199 -11 224 12 b 275 161 259 78 268 121 b 291 320 284 214 289 267 b 290 641 297 426 296 534 b 230 656 289 661 229 679 z m 137 26 b 136 25 137 25 136 25 b 137 26 137 25 137 26 z m 141 23 b 141 23 141 23 141 23 b 142 23 141 23 142 23 b 141 23 141 23 141 23 z "},"Û":{"ha":321,"x_min":0,"x_max":0,"o":"m 230 656 b 233 399 233 571 235 485 b 201 114 232 305 228 206 b 158 34 193 86 182 53 b 146 27 154 31 151 29 b 139 26 145 27 141 26 b 136 29 138 27 136 29 b 126 45 133 33 129 39 b 95 155 108 78 101 118 b 82 308 87 206 84 257 b 83 642 78 419 80 531 b 41 653 83 655 43 669 b 27 337 31 548 25 443 b 38 174 28 283 31 228 b 71 52 44 133 52 90 b 163 -10 89 17 123 -9 b 240 42 199 -11 224 12 b 275 161 259 78 268 121 b 291 320 284 214 289 267 b 290 641 297 426 296 534 b 230 656 289 661 229 679 z m 137 26 b 136 25 137 25 136 25 b 137 26 137 25 137 26 z m 141 23 b 141 23 141 23 141 23 b 142 23 141 23 142 23 b 141 23 141 23 141 23 z "},"Ü":{"ha":321,"x_min":0,"x_max":0,"o":"m 230 656 b 233 399 233 571 235 485 b 201 114 232 305 228 206 b 158 34 193 86 182 53 b 146 27 154 31 151 29 b 139 26 145 27 141 26 b 136 29 138 27 136 29 b 126 45 133 33 129 39 b 95 155 108 78 101 118 b 82 308 87 206 84 257 b 83 642 78 419 80 531 b 41 653 83 655 43 669 b 27 337 31 548 25 443 b 38 174 28 283 31 228 b 71 52 44 133 52 90 b 163 -10 89 17 123 -9 b 240 42 199 -11 224 12 b 275 161 259 78 268 121 b 291 320 284 214 289 267 b 290 641 297 426 296 534 b 230 656 289 661 229 679 z m 137 26 b 136 25 137 25 136 25 b 137 26 137 25 137 26 z m 141 23 b 141 23 141 23 141 23 b 142 23 141 23 142 23 b 141 23 141 23 141 23 z "},"V":{"ha":293,"x_min":0,"x_max":0,"o":"m 229 661 b 138 169 198 497 168 333 b 47 638 110 326 81 482 b 6 649 44 651 3 664 b 111 16 36 437 74 227 b 169 -3 114 1 165 -23 b 289 637 209 210 251 423 b 229 661 292 659 233 679 z "},"W":{"ha":446,"x_min":0,"x_max":0,"o":"m 381 661 b 291 171 349 498 320 334 b 247 404 277 249 263 326 b 248 410 247 406 248 408 b 243 423 249 415 247 419 b 242 426 243 424 242 425 b 202 441 240 437 208 449 b 189 434 195 441 190 439 b 140 172 172 347 156 260 b 48 638 112 328 83 484 b 7 649 46 651 5 664 b 112 16 35 437 75 227 b 171 -3 115 1 167 -23 b 223 274 188 89 206 181 b 264 16 236 188 250 102 b 320 -3 266 1 316 -22 b 441 637 361 210 403 423 b 381 661 444 659 385 679 z "},"X":{"ha":292,"x_min":0,"x_max":0,"o":"m 248 667 b 141 388 207 577 174 482 b 48 653 112 477 83 566 b 7 661 43 663 4 675 b 104 339 33 552 70 446 b 113 310 107 329 110 320 b 7 10 77 210 41 111 b 67 -14 1 -10 60 -33 b 145 210 94 60 120 135 b 208 16 165 145 186 80 b 240 -9 213 2 227 -5 b 268 0 246 -10 272 -13 b 173 292 238 98 205 195 b 181 317 176 300 178 309 b 289 651 219 427 260 538 b 248 667 292 665 254 681 z "},"Y":{"ha":288,"x_min":0,"x_max":0,"o":"m 252 667 b 133 354 206 566 171 459 b 107 456 125 388 116 422 b 52 657 91 522 79 593 b 11 664 48 666 11 681 b 28 566 12 631 21 598 b 50 467 36 533 43 500 b 97 268 65 401 79 334 b 100 262 97 266 98 264 b 12 10 70 178 40 95 b 71 -14 5 -10 64 -33 b 185 317 111 96 148 207 b 293 651 223 427 264 538 b 252 667 296 665 258 681 z "},"Ý":{"ha":288,"x_min":0,"x_max":0,"o":"m 252 667 b 133 354 206 566 171 459 b 107 456 125 388 116 422 b 52 657 91 522 79 593 b 11 664 48 666 11 681 b 28 566 12 631 21 598 b 50 467 36 533 43 500 b 97 268 65 401 79 334 b 100 262 97 266 98 264 b 12 10 70 178 40 95 b 71 -14 5 -10 64 -33 b 185 317 111 96 148 207 b 293 651 223 427 264 538 b 252 667 296 665 258 681 z "},"Ÿ":{"ha":288,"x_min":0,"x_max":0,"o":"m 252 667 b 133 354 206 566 171 459 b 107 456 125 388 116 422 b 52 657 91 522 79 593 b 11 664 48 666 11 681 b 28 566 12 631 21 598 b 50 467 36 533 43 500 b 97 268 65 401 79 334 b 100 262 97 266 98 264 b 12 10 70 178 40 95 b 71 -14 5 -10 64 -33 b 185 317 111 96 148 207 b 293 651 223 427 264 538 b 252 667 296 665 258 681 z "},"Z":{"ha":282,"x_min":0,"x_max":0,"o":"m 244 674 b 27 671 172 675 100 673 b 22 658 18 671 17 664 b 50 647 28 650 41 647 b 227 643 109 645 168 643 b 114 340 184 545 151 441 b -2 10 75 230 34 121 b 57 -14 -9 -10 50 -33 b 59 -9 58 -12 58 -11 b 271 -12 129 -11 200 -13 b 278 4 282 -12 284 -3 b 243 18 270 14 255 18 b 68 17 184 20 126 18 b 172 317 104 116 137 217 b 277 644 209 425 249 534 b 279 660 284 647 284 654 b 244 674 271 670 256 674 z "},"[":{"ha":169,"x_min":0,"x_max":0,"o":"m 144 0 b 103 8 130 3 117 6 b 102 352 107 123 104 238 b 96 529 101 411 99 470 b 86 710 94 589 93 650 b 154 715 109 707 131 709 b 151 732 164 718 156 728 b 119 741 143 739 130 744 b 56 739 98 735 77 734 b 36 734 50 741 37 742 b 31 725 32 732 31 730 b 39 544 31 665 36 605 b 45 367 41 485 43 426 b 49 7 49 247 47 127 b 85 -17 50 -7 76 -15 b 148 -28 106 -20 127 -24 b 171 -21 155 -30 172 -32 b 144 0 171 -10 152 -1 z "},"\\":{"ha":214,"x_min":0,"x_max":0,"o":"m 215 -104 b 133 315 187 36 160 175 b 95 526 120 385 107 455 b 56 737 82 596 72 668 b 7 750 52 752 5 769 b 42 540 14 679 29 609 b 79 329 54 469 67 399 b 160 -90 105 189 132 50 b 215 -104 164 -108 219 -123 z "},"]":{"ha":174,"x_min":0,"x_max":0,"o":"m 135 755 b 102 763 126 762 113 766 b 27 746 77 758 52 752 b 23 736 22 745 20 740 b 25 732 23 735 24 733 b 67 722 30 723 65 710 b 81 725 72 723 76 724 b 76 347 75 599 78 473 b 75 156 76 283 75 219 b 75 62 74 124 75 93 b 65 21 74 50 72 31 b 23 4 55 7 38 6 b 17 -10 13 4 12 -3 b 48 -23 23 -18 38 -23 b 119 8 76 -21 101 -14 b 131 86 135 28 131 63 b 134 299 133 157 134 228 b 138 719 136 439 141 579 b 126 735 138 725 133 730 b 137 737 130 735 133 736 b 135 755 148 739 140 751 z "},"^":{"ha":192,"x_min":0,"x_max":0,"o":"m 168 466 b 144 621 153 515 146 570 b 99 636 144 636 107 649 b 21 535 76 601 50 567 b 62 513 10 522 52 502 b 99 556 75 527 87 541 b 99 556 99 556 99 556 b 112 480 101 530 105 505 b 142 458 115 468 131 461 b 168 466 147 456 171 453 z "},"_":{"ha":443,"x_min":0,"x_max":0,"o":"m 404 -16 b 366 -1 395 -6 379 -1 b 46 -5 259 -2 152 -3 b 39 -23 34 -5 32 -14 b 77 -38 47 -33 64 -38 b 397 -34 183 -37 290 -36 b 404 -16 409 -34 411 -25 z "},"`":{"ha":111,"x_min":0,"x_max":0,"o":"m 84 658 b 60 666 77 663 68 666 b 56 669 59 667 57 668 b 47 680 53 673 50 677 b 39 695 44 685 41 690 b 42 706 43 697 45 700 b 37 717 40 710 39 713 b 9 735 33 727 18 733 b -16 731 4 737 -15 740 b 92 641 -24 684 45 614 b 84 658 100 646 87 656 z m 55 665 b 59 666 56 667 57 667 b 55 665 58 666 56 666 z "},"a":{"ha":296,"x_min":0,"x_max":0,"o":"m 257 416 b 233 569 253 467 247 520 b 182 652 225 601 212 635 b 30 272 44 732 33 332 b 28 233 29 259 29 246 b 24 220 20 232 19 226 b 28 215 25 218 26 217 b 28 9 26 147 26 78 b 68 -1 28 -4 69 -17 b 68 208 67 68 67 138 b 204 209 113 207 159 208 b 204 10 203 143 199 76 b 263 -10 206 -7 261 -28 b 267 212 272 63 268 138 b 257 416 266 280 263 348 z m 167 633 b 167 633 170 635 169 633 z m 157 637 b 158 636 157 637 158 637 b 157 637 157 637 157 637 z m 69 235 b 92 468 72 313 78 391 b 119 573 98 504 106 540 b 161 630 127 595 139 620 b 162 630 161 630 161 630 b 163 628 162 630 163 629 b 178 587 170 616 174 601 b 197 452 189 543 193 497 b 204 243 202 382 204 313 b 204 234 204 240 204 237 b 195 235 201 235 198 235 b 69 235 153 235 111 236 z "},"à":{"ha":296,"x_min":0,"x_max":0,"o":"m 257 416 b 233 569 253 467 247 520 b 182 652 225 601 212 635 b 30 272 44 732 33 332 b 28 233 29 259 29 246 b 24 220 20 232 19 226 b 28 215 25 218 26 217 b 28 9 26 147 26 78 b 68 -1 28 -4 69 -17 b 68 208 67 68 67 138 b 204 209 113 207 159 208 b 204 10 203 143 199 76 b 263 -10 206 -7 261 -28 b 267 212 272 63 268 138 b 257 416 266 280 263 348 z m 167 633 b 167 633 170 635 169 633 z m 157 637 b 158 636 157 637 158 637 b 157 637 157 637 157 637 z m 69 235 b 92 468 72 313 78 391 b 119 573 98 504 106 540 b 161 630 127 595 139 620 b 162 630 161 630 161 630 b 163 628 162 630 163 629 b 178 587 170 616 174 601 b 197 452 189 543 193 497 b 204 243 202 382 204 313 b 204 234 204 240 204 237 b 195 235 201 235 198 235 b 69 235 153 235 111 236 z "},"á":{"ha":296,"x_min":0,"x_max":0,"o":"m 257 416 b 233 569 253 467 247 520 b 182 652 225 601 212 635 b 30 272 44 732 33 332 b 28 233 29 259 29 246 b 24 220 20 232 19 226 b 28 215 25 218 26 217 b 28 9 26 147 26 78 b 68 -1 28 -4 69 -17 b 68 208 67 68 67 138 b 204 209 113 207 159 208 b 204 10 203 143 199 76 b 263 -10 206 -7 261 -28 b 267 212 272 63 268 138 b 257 416 266 280 263 348 z m 167 633 b 167 633 170 635 169 633 z m 157 637 b 158 636 157 637 158 637 b 157 637 157 637 157 637 z m 69 235 b 92 468 72 313 78 391 b 119 573 98 504 106 540 b 161 630 127 595 139 620 b 162 630 161 630 161 630 b 163 628 162 630 163 629 b 178 587 170 616 174 601 b 197 452 189 543 193 497 b 204 243 202 382 204 313 b 204 234 204 240 204 237 b 195 235 201 235 198 235 b 69 235 153 235 111 236 z "},"â":{"ha":296,"x_min":0,"x_max":0,"o":"m 257 416 b 233 569 253 467 247 520 b 182 652 225 601 212 635 b 30 272 44 732 33 332 b 28 233 29 259 29 246 b 24 220 20 232 19 226 b 28 215 25 218 26 217 b 28 9 26 147 26 78 b 68 -1 28 -4 69 -17 b 68 208 67 68 67 138 b 204 209 113 207 159 208 b 204 10 203 143 199 76 b 263 -10 206 -7 261 -28 b 267 212 272 63 268 138 b 257 416 266 280 263 348 z m 167 633 b 167 633 170 635 169 633 z m 157 637 b 158 636 157 637 158 637 b 157 637 157 637 157 637 z m 69 235 b 92 468 72 313 78 391 b 119 573 98 504 106 540 b 161 630 127 595 139 620 b 162 630 161 630 161 630 b 163 628 162 630 163 629 b 178 587 170 616 174 601 b 197 452 189 543 193 497 b 204 243 202 382 204 313 b 204 234 204 240 204 237 b 195 235 201 235 198 235 b 69 235 153 235 111 236 z "},"ã":{"ha":296,"x_min":0,"x_max":0,"o":"m 257 416 b 233 569 253 467 247 520 b 182 652 225 601 212 635 b 30 272 44 732 33 332 b 28 233 29 259 29 246 b 24 220 20 232 19 226 b 28 215 25 218 26 217 b 28 9 26 147 26 78 b 68 -1 28 -4 69 -17 b 68 208 67 68 67 138 b 204 209 113 207 159 208 b 204 10 203 143 199 76 b 263 -10 206 -7 261 -28 b 267 212 272 63 268 138 b 257 416 266 280 263 348 z m 167 633 b 167 633 170 635 169 633 z m 157 637 b 158 636 157 637 158 637 b 157 637 157 637 157 637 z m 69 235 b 92 468 72 313 78 391 b 119 573 98 504 106 540 b 161 630 127 595 139 620 b 162 630 161 630 161 630 b 163 628 162 630 163 629 b 178 587 170 616 174 601 b 197 452 189 543 193 497 b 204 243 202 382 204 313 b 204 234 204 240 204 237 b 195 235 201 235 198 235 b 69 235 153 235 111 236 z "},"ä":{"ha":296,"x_min":0,"x_max":0,"o":"m 257 416 b 233 569 253 467 247 520 b 182 652 225 601 212 635 b 30 272 44 732 33 332 b 28 233 29 259 29 246 b 24 220 20 232 19 226 b 28 215 25 218 26 217 b 28 9 26 147 26 78 b 68 -1 28 -4 69 -17 b 68 208 67 68 67 138 b 204 209 113 207 159 208 b 204 10 203 143 199 76 b 263 -10 206 -7 261 -28 b 267 212 272 63 268 138 b 257 416 266 280 263 348 z m 167 633 b 167 633 170 635 169 633 z m 157 637 b 158 636 157 637 158 637 b 157 637 157 637 157 637 z m 69 235 b 92 468 72 313 78 391 b 119 573 98 504 106 540 b 161 630 127 595 139 620 b 162 630 161 630 161 630 b 163 628 162 630 163 629 b 178 587 170 616 174 601 b 197 452 189 543 193 497 b 204 243 202 382 204 313 b 204 234 204 240 204 237 b 195 235 201 235 198 235 b 69 235 153 235 111 236 z "},"å":{"ha":296,"x_min":0,"x_max":0,"o":"m 257 416 b 233 569 253 467 247 520 b 182 652 225 601 212 635 b 30 272 44 732 33 332 b 28 233 29 259 29 246 b 24 220 20 232 19 226 b 28 215 25 218 26 217 b 28 9 26 147 26 78 b 68 -1 28 -4 69 -17 b 68 208 67 68 67 138 b 204 209 113 207 159 208 b 204 10 203 143 199 76 b 263 -10 206 -7 261 -28 b 267 212 272 63 268 138 b 257 416 266 280 263 348 z m 167 633 b 167 633 170 635 169 633 z m 157 637 b 158 636 157 637 158 637 b 157 637 157 637 157 637 z m 69 235 b 92 468 72 313 78 391 b 119 573 98 504 106 540 b 161 630 127 595 139 620 b 162 630 161 630 161 630 b 163 628 162 630 163 629 b 178 587 170 616 174 601 b 197 452 189 543 193 497 b 204 243 202 382 204 313 b 204 234 204 240 204 237 b 195 235 201 235 198 235 b 69 235 153 235 111 236 z "},"b":{"ha":299,"x_min":0,"x_max":0,"o":"m 231 314 b 162 351 211 332 187 345 b 260 517 214 392 251 452 b 91 660 272 618 175 655 b 81 659 88 661 84 660 b 51 661 69 666 52 670 b 39 349 39 558 41 453 b 36 29 38 242 35 136 b 34 29 35 29 35 29 b 44 2 10 27 33 6 b 285 189 165 -45 284 72 b 231 314 285 237 266 282 z m 197 598 b 195 494 217 567 207 526 b 98 371 176 443 142 401 b 93 636 98 459 100 548 b 107 632 98 634 103 632 b 197 598 139 630 178 628 z m 225 179 b 162 66 218 136 195 95 b 107 35 145 52 127 41 b 96 32 103 34 100 33 b 98 306 98 124 98 215 b 106 308 101 306 104 307 b 225 179 194 363 238 249 z "},"c":{"ha":247,"x_min":0,"x_max":0,"o":"m 124 594 b 139 620 128 603 133 612 b 157 632 146 628 152 629 b 164 623 159 629 163 624 b 178 592 170 614 174 602 b 195 523 185 569 191 546 b 236 512 197 509 237 496 b 195 640 233 556 228 607 b 94 652 171 664 122 678 b 60 588 77 635 67 610 b 37 483 49 554 42 518 b 27 228 26 399 22 313 b 64 36 30 166 33 92 b 162 -8 82 3 125 -23 b 209 52 186 2 199 29 b 235 147 221 82 229 115 b 176 171 239 169 180 190 b 128 39 167 128 157 73 b 120 31 128 38 124 34 b 118 35 119 32 119 34 b 87 199 94 84 90 145 b 88 418 81 272 82 345 b 124 594 93 476 100 539 z m 155 635 b 156 634 155 635 156 634 b 155 635 155 634 155 634 z m 128 19 b 128 19 128 19 128 19 b 128 19 128 19 128 19 z m 112 26 b 112 26 112 25 112 25 b 112 26 112 26 112 26 z "},"ç":{"ha":247,"x_min":0,"x_max":0,"o":"m 124 594 b 139 620 128 603 133 612 b 157 632 146 628 152 629 b 164 623 159 629 163 624 b 178 592 170 614 174 602 b 195 523 185 569 191 546 b 236 512 197 509 237 496 b 195 640 233 556 228 607 b 94 652 171 664 122 678 b 60 588 77 635 67 610 b 37 483 49 554 42 518 b 27 228 26 399 22 313 b 64 36 30 166 33 92 b 162 -8 82 3 125 -23 b 209 52 186 2 199 29 b 235 147 221 82 229 115 b 176 171 239 169 180 190 b 128 39 167 128 157 73 b 120 31 128 38 124 34 b 118 35 119 32 119 34 b 87 199 94 84 90 145 b 88 418 81 272 82 345 b 124 594 93 476 100 539 z m 155 635 b 156 634 155 635 156 634 b 155 635 155 634 155 634 z m 128 19 b 128 19 128 19 128 19 b 128 19 128 19 128 19 z m 112 26 b 112 26 112 25 112 25 b 112 26 112 26 112 26 z "},"d":{"ha":292,"x_min":0,"x_max":0,"o":"m 52 667 b 45 654 43 668 41 661 b 36 338 34 550 37 443 b 34 16 35 231 32 123 b 92 -6 34 -2 82 -20 b 269 279 196 52 251 165 b 218 582 284 378 278 497 b 52 667 179 637 120 666 z m 164 149 b 95 62 146 116 123 87 b 94 323 95 149 94 236 b 87 638 93 428 96 534 b 219 442 178 629 210 520 b 164 149 230 343 212 237 z "},"e":{"ha":251,"x_min":0,"x_max":0,"o":"m 151 635 b 235 635 179 635 207 634 b 243 651 245 636 249 642 b 210 668 237 661 221 668 b 129 669 183 670 156 669 b 59 666 107 668 80 672 b 46 661 52 667 47 666 b 36 349 35 558 37 453 b 34 29 35 242 32 136 b 45 14 34 24 38 18 b 62 4 50 9 59 5 b 147 -1 89 -3 119 -1 b 235 -1 176 -1 206 -3 b 243 14 245 -1 249 6 b 210 32 237 24 221 31 b 124 32 181 33 153 32 b 94 33 115 32 105 33 b 94 270 96 112 95 191 b 151 269 113 268 132 269 b 235 269 179 268 207 267 b 243 284 245 269 249 276 b 210 302 237 294 221 301 b 129 302 183 303 156 302 b 94 303 118 302 106 303 b 94 330 94 312 94 321 b 88 637 94 432 97 535 b 151 635 109 635 130 636 z "},"è":{"ha":251,"x_min":0,"x_max":0,"o":"m 151 635 b 235 635 179 635 207 634 b 243 651 245 636 249 642 b 210 668 237 661 221 668 b 129 669 183 670 156 669 b 59 666 107 668 80 672 b 46 661 52 667 47 666 b 36 349 35 558 37 453 b 34 29 35 242 32 136 b 45 14 34 24 38 18 b 62 4 50 9 59 5 b 147 -1 89 -3 119 -1 b 235 -1 176 -1 206 -3 b 243 14 245 -1 249 6 b 210 32 237 24 221 31 b 124 32 181 33 153 32 b 94 33 115 32 105 33 b 94 270 96 112 95 191 b 151 269 113 268 132 269 b 235 269 179 268 207 267 b 243 284 245 269 249 276 b 210 302 237 294 221 301 b 129 302 183 303 156 302 b 94 303 118 302 106 303 b 94 330 94 312 94 321 b 88 637 94 432 97 535 b 151 635 109 635 130 636 z "},"é":{"ha":251,"x_min":0,"x_max":0,"o":"m 151 635 b 235 635 179 635 207 634 b 243 651 245 636 249 642 b 210 668 237 661 221 668 b 129 669 183 670 156 669 b 59 666 107 668 80 672 b 46 661 52 667 47 666 b 36 349 35 558 37 453 b 34 29 35 242 32 136 b 45 14 34 24 38 18 b 62 4 50 9 59 5 b 147 -1 89 -3 119 -1 b 235 -1 176 -1 206 -3 b 243 14 245 -1 249 6 b 210 32 237 24 221 31 b 124 32 181 33 153 32 b 94 33 115 32 105 33 b 94 270 96 112 95 191 b 151 269 113 268 132 269 b 235 269 179 268 207 267 b 243 284 245 269 249 276 b 210 302 237 294 221 301 b 129 302 183 303 156 302 b 94 303 118 302 106 303 b 94 330 94 312 94 321 b 88 637 94 432 97 535 b 151 635 109 635 130 636 z "},"ê":{"ha":251,"x_min":0,"x_max":0,"o":"m 151 635 b 235 635 179 635 207 634 b 243 651 245 636 249 642 b 210 668 237 661 221 668 b 129 669 183 670 156 669 b 59 666 107 668 80 672 b 46 661 52 667 47 666 b 36 349 35 558 37 453 b 34 29 35 242 32 136 b 45 14 34 24 38 18 b 62 4 50 9 59 5 b 147 -1 89 -3 119 -1 b 235 -1 176 -1 206 -3 b 243 14 245 -1 249 6 b 210 32 237 24 221 31 b 124 32 181 33 153 32 b 94 33 115 32 105 33 b 94 270 96 112 95 191 b 151 269 113 268 132 269 b 235 269 179 268 207 267 b 243 284 245 269 249 276 b 210 302 237 294 221 301 b 129 302 183 303 156 302 b 94 303 118 302 106 303 b 94 330 94 312 94 321 b 88 637 94 432 97 535 b 151 635 109 635 130 636 z "},"ë":{"ha":251,"x_min":0,"x_max":0,"o":"m 151 635 b 235 635 179 635 207 634 b 243 651 245 636 249 642 b 210 668 237 661 221 668 b 129 669 183 670 156 669 b 59 666 107 668 80 672 b 46 661 52 667 47 666 b 36 349 35 558 37 453 b 34 29 35 242 32 136 b 45 14 34 24 38 18 b 62 4 50 9 59 5 b 147 -1 89 -3 119 -1 b 235 -1 176 -1 206 -3 b 243 14 245 -1 249 6 b 210 32 237 24 221 31 b 124 32 181 33 153 32 b 94 33 115 32 105 33 b 94 270 96 112 95 191 b 151 269 113 268 132 269 b 235 269 179 268 207 267 b 243 284 245 269 249 276 b 210 302 237 294 221 301 b 129 302 183 303 156 302 b 94 303 118 302 106 303 b 94 330 94 312 94 321 b 88 637 94 432 97 535 b 151 635 109 635 130 636 z "},"f":{"ha":247,"x_min":0,"x_max":0,"o":"m 153 635 b 237 635 181 635 209 634 b 246 651 247 636 251 642 b 212 668 240 661 223 668 b 131 669 185 670 158 669 b 61 666 109 668 82 672 b 48 661 54 667 49 666 b 36 342 36 556 38 448 b 32 16 34 233 31 125 b 92 0 32 -4 91 -24 b 94 270 95 90 94 180 b 153 269 114 268 134 269 b 237 269 181 268 209 267 b 246 284 247 269 251 276 b 212 302 240 294 223 301 b 131 302 185 303 158 302 b 94 303 120 302 107 303 b 94 323 94 309 94 316 b 90 637 95 427 98 533 b 153 635 111 635 132 636 z "},"g":{"ha":290,"x_min":0,"x_max":0,"o":"m 270 284 b 269 286 270 285 270 285 b 213 302 261 301 222 314 b 175 302 200 302 187 302 b 118 297 157 302 135 305 b 136 274 102 290 129 276 b 197 269 156 268 177 269 b 211 268 202 269 206 269 b 179 65 210 200 206 127 b 149 27 172 51 164 34 b 142 24 147 26 144 25 b 141 24 142 24 141 24 b 141 22 142 24 142 23 b 140 23 141 22 141 23 b 139 23 138 22 138 23 b 140 23 139 23 139 23 b 139 23 139 23 139 23 b 139 23 139 23 139 23 b 138 24 139 24 138 24 b 136 26 136 26 136 26 b 100 98 118 43 107 72 b 82 346 77 178 76 264 b 130 578 86 424 97 507 b 183 636 142 603 157 628 b 186 638 184 636 186 637 b 189 633 187 636 189 635 b 198 617 193 629 196 623 b 208 580 203 605 206 593 b 214 523 211 561 214 542 b 256 512 214 509 254 495 b 229 638 259 554 259 605 b 107 645 198 673 140 679 b 59 553 82 620 69 586 b 30 417 44 509 36 463 b 37 127 18 322 15 221 b 82 28 45 92 58 56 b 207 -1 110 -4 167 -28 b 263 137 247 27 256 92 b 271 272 269 182 271 227 b 270 284 274 275 274 279 z "},"h":{"ha":317,"x_min":0,"x_max":0,"o":"m 234 661 b 223 342 223 556 225 448 b 222 300 222 328 222 314 b 212 302 218 301 215 302 b 131 302 185 303 158 302 b 94 303 120 302 107 303 b 94 323 94 309 94 316 b 89 648 95 431 99 540 b 48 661 88 659 50 674 b 36 342 36 556 38 448 b 32 16 34 233 31 125 b 92 0 32 -4 91 -24 b 94 270 95 90 94 180 b 153 269 114 268 134 269 b 221 268 176 268 199 268 b 218 16 219 184 218 100 b 278 0 218 -4 278 -24 b 281 323 281 108 280 215 b 276 648 281 431 285 540 b 234 661 275 659 236 674 z "},"i":{"ha":131,"x_min":0,"x_max":0,"o":"m 48 661 b 36 342 36 556 38 448 b 32 16 34 233 31 125 b 92 0 32 -4 91 -24 b 94 323 95 108 94 215 b 89 648 95 431 99 540 b 48 661 88 659 50 674 z "},"ì":{"ha":131,"x_min":0,"x_max":0,"o":"m 48 661 b 36 342 36 556 38 448 b 32 16 34 233 31 125 b 92 0 32 -4 91 -24 b 94 323 95 108 94 215 b 89 648 95 431 99 540 b 48 661 88 659 50 674 z "},"í":{"ha":131,"x_min":0,"x_max":0,"o":"m 48 661 b 36 342 36 556 38 448 b 32 16 34 233 31 125 b 92 0 32 -4 91 -24 b 94 323 95 108 94 215 b 89 648 95 431 99 540 b 48 661 88 659 50 674 z "},"î":{"ha":131,"x_min":0,"x_max":0,"o":"m 48 661 b 36 342 36 556 38 448 b 32 16 34 233 31 125 b 92 0 32 -4 91 -24 b 94 323 95 108 94 215 b 89 648 95 431 99 540 b 48 661 88 659 50 674 z "},"ï":{"ha":131,"x_min":0,"x_max":0,"o":"m 48 661 b 36 342 36 556 38 448 b 32 16 34 233 31 125 b 92 0 32 -4 91 -24 b 94 323 95 108 94 215 b 89 648 95 431 99 540 b 48 661 88 659 50 674 z "},"j":{"ha":268,"x_min":0,"x_max":0,"o":"m 215 645 b 215 647 215 646 215 646 b 215 648 215 647 215 647 b 213 652 215 649 214 651 b 213 652 213 652 213 652 b 179 670 207 662 190 669 b 98 670 152 671 125 670 b 23 665 75 669 45 674 b 40 642 6 658 34 643 b 120 637 66 635 94 637 b 174 636 138 636 156 636 b 182 273 179 515 186 394 b 160 93 180 213 177 151 b 135 41 154 75 148 55 b 116 28 130 35 124 30 b 102 24 115 27 108 25 b 82 59 95 36 87 46 b 70 109 77 75 73 92 b 64 180 67 132 65 156 b 4 195 64 199 4 219 b 41 34 4 142 10 79 b 197 21 76 -15 159 -34 b 236 186 228 67 232 133 b 237 417 242 262 240 340 b 215 645 233 493 226 569 z m 94 25 b 98 24 94 26 95 25 b 94 25 96 24 94 24 z "},"k":{"ha":285,"x_min":0,"x_max":0,"o":"m 245 662 b 95 388 194 571 144 480 b 89 648 96 475 97 562 b 48 661 88 659 50 674 b 36 342 36 556 38 448 b 32 16 34 233 31 125 b 92 0 32 -4 91 -24 b 94 249 94 83 94 166 b 233 10 140 169 187 90 b 259 -4 238 2 250 -3 b 271 6 265 -4 276 -3 b 99 306 214 106 157 207 b 286 645 162 419 225 531 b 245 662 292 657 252 675 z "},"l":{"ha":249,"x_min":0,"x_max":0,"o":"m 222 24 b 133 25 192 26 162 25 b 93 26 121 24 107 26 b 94 323 95 125 94 224 b 89 648 95 431 99 540 b 48 661 88 659 50 674 b 36 342 36 556 38 448 b 32 16 34 233 31 125 b 89 -7 32 -1 77 -18 b 155 -9 111 -9 133 -8 b 247 -9 186 -9 216 -10 b 255 7 257 -8 261 -2 b 222 24 249 17 233 24 z "},"m":{"ha":333,"x_min":0,"x_max":0,"o":"m 292 648 b 251 664 294 663 254 677 b 162 319 219 549 191 434 b 89 648 139 429 115 538 b 89 649 89 648 89 648 b 49 663 86 660 53 672 b 48 658 48 662 48 660 b 48 658 48 658 48 658 b 36 342 36 554 38 447 b 32 16 34 233 31 125 b 92 0 32 -4 91 -24 b 94 323 95 108 94 215 b 95 442 95 363 95 402 b 142 238 111 374 127 306 b 142 237 142 237 142 237 b 181 223 145 224 176 214 b 182 226 182 224 182 225 b 240 446 201 299 221 372 b 239 342 240 411 240 377 b 235 16 237 233 234 125 b 295 0 235 -4 294 -24 b 297 323 298 108 297 215 b 292 648 297 431 301 540 b 292 648 292 648 292 648 z "},"n":{"ha":318,"x_min":0,"x_max":0,"o":"m 235 662 b 224 382 225 570 225 476 b 88 651 179 472 134 562 b 77 660 87 655 82 658 b 49 662 66 666 51 669 b 48 659 48 662 48 660 b 36 342 36 554 38 448 b 32 16 34 233 31 125 b 92 0 32 -4 91 -24 b 94 323 95 108 94 215 b 94 565 95 403 97 484 b 222 313 136 481 180 397 b 219 16 220 214 218 115 b 279 1 219 -3 278 -23 b 281 324 282 108 281 216 b 276 648 281 432 285 541 b 235 662 275 660 236 675 z "},"ñ":{"ha":318,"x_min":0,"x_max":0,"o":"m 235 662 b 224 382 225 570 225 476 b 88 651 179 472 134 562 b 77 660 87 655 82 658 b 49 662 66 666 51 669 b 48 659 48 662 48 660 b 36 342 36 554 38 448 b 32 16 34 233 31 125 b 92 0 32 -4 91 -24 b 94 323 95 108 94 215 b 94 565 95 403 97 484 b 222 313 136 481 180 397 b 219 16 220 214 218 115 b 279 1 219 -3 278 -23 b 281 324 282 108 281 216 b 276 648 281 432 285 541 b 235 662 275 660 236 675 z "},"o":{"ha":335,"x_min":0,"x_max":0,"o":"m 199 662 b 167 665 192 665 175 671 b 32 458 75 670 43 530 b 51 104 14 344 12 214 b 133 2 66 62 90 21 b 251 39 183 -20 224 -4 b 297 177 276 80 289 130 b 313 362 309 238 314 300 b 289 551 313 425 308 491 b 199 662 274 599 248 644 z m 192 634 b 191 634 192 634 192 634 b 192 634 190 636 191 635 z m 214 105 b 160 30 203 79 186 40 b 151 27 157 28 154 28 b 150 27 149 27 143 30 b 147 28 148 28 147 28 b 145 30 146 28 146 29 b 143 31 144 30 144 31 b 139 35 142 33 140 34 b 112 81 127 48 119 65 b 80 392 72 176 71 292 b 115 559 84 448 94 506 b 181 638 125 585 147 634 b 188 635 184 637 186 635 b 190 634 189 634 189 634 b 192 633 191 634 192 633 b 191 634 192 633 191 633 b 192 633 192 634 192 633 b 192 632 193 632 194 631 b 205 616 199 626 201 623 b 228 567 215 601 222 584 b 252 418 243 519 249 468 b 214 105 257 315 251 203 z "},"ò":{"ha":335,"x_min":0,"x_max":0,"o":"m 199 662 b 167 665 192 665 175 671 b 32 458 75 670 43 530 b 51 104 14 344 12 214 b 133 2 66 62 90 21 b 251 39 183 -20 224 -4 b 297 177 276 80 289 130 b 313 362 309 238 314 300 b 289 551 313 425 308 491 b 199 662 274 599 248 644 z m 192 634 b 191 634 192 634 192 634 b 192 634 190 636 191 635 z m 214 105 b 160 30 203 79 186 40 b 151 27 157 28 154 28 b 150 27 149 27 143 30 b 147 28 148 28 147 28 b 145 30 146 28 146 29 b 143 31 144 30 144 31 b 139 35 142 33 140 34 b 112 81 127 48 119 65 b 80 392 72 176 71 292 b 115 559 84 448 94 506 b 181 638 125 585 147 634 b 188 635 184 637 186 635 b 190 634 189 634 189 634 b 192 633 191 634 192 633 b 191 634 192 633 191 633 b 192 633 192 634 192 633 b 192 632 193 632 194 631 b 205 616 199 626 201 623 b 228 567 215 601 222 584 b 252 418 243 519 249 468 b 214 105 257 315 251 203 z "},"ó":{"ha":335,"x_min":0,"x_max":0,"o":"m 199 662 b 167 665 192 665 175 671 b 32 458 75 670 43 530 b 51 104 14 344 12 214 b 133 2 66 62 90 21 b 251 39 183 -20 224 -4 b 297 177 276 80 289 130 b 313 362 309 238 314 300 b 289 551 313 425 308 491 b 199 662 274 599 248 644 z m 192 634 b 191 634 192 634 192 634 b 192 634 190 636 191 635 z m 214 105 b 160 30 203 79 186 40 b 151 27 157 28 154 28 b 150 27 149 27 143 30 b 147 28 148 28 147 28 b 145 30 146 28 146 29 b 143 31 144 30 144 31 b 139 35 142 33 140 34 b 112 81 127 48 119 65 b 80 392 72 176 71 292 b 115 559 84 448 94 506 b 181 638 125 585 147 634 b 188 635 184 637 186 635 b 190 634 189 634 189 634 b 192 633 191 634 192 633 b 191 634 192 633 191 633 b 192 633 192 634 192 633 b 192 632 193 632 194 631 b 205 616 199 626 201 623 b 228 567 215 601 222 584 b 252 418 243 519 249 468 b 214 105 257 315 251 203 z "},"ô":{"ha":335,"x_min":0,"x_max":0,"o":"m 199 662 b 167 665 192 665 175 671 b 32 458 75 670 43 530 b 51 104 14 344 12 214 b 133 2 66 62 90 21 b 251 39 183 -20 224 -4 b 297 177 276 80 289 130 b 313 362 309 238 314 300 b 289 551 313 425 308 491 b 199 662 274 599 248 644 z m 192 634 b 191 634 192 634 192 634 b 192 634 190 636 191 635 z m 214 105 b 160 30 203 79 186 40 b 151 27 157 28 154 28 b 150 27 149 27 143 30 b 147 28 148 28 147 28 b 145 30 146 28 146 29 b 143 31 144 30 144 31 b 139 35 142 33 140 34 b 112 81 127 48 119 65 b 80 392 72 176 71 292 b 115 559 84 448 94 506 b 181 638 125 585 147 634 b 188 635 184 637 186 635 b 190 634 189 634 189 634 b 192 633 191 634 192 633 b 191 634 192 633 191 633 b 192 633 192 634 192 633 b 192 632 193 632 194 631 b 205 616 199 626 201 623 b 228 567 215 601 222 584 b 252 418 243 519 249 468 b 214 105 257 315 251 203 z "},"õ":{"ha":335,"x_min":0,"x_max":0,"o":"m 199 662 b 167 665 192 665 175 671 b 32 458 75 670 43 530 b 51 104 14 344 12 214 b 133 2 66 62 90 21 b 251 39 183 -20 224 -4 b 297 177 276 80 289 130 b 313 362 309 238 314 300 b 289 551 313 425 308 491 b 199 662 274 599 248 644 z m 192 634 b 191 634 192 634 192 634 b 192 634 190 636 191 635 z m 214 105 b 160 30 203 79 186 40 b 151 27 157 28 154 28 b 150 27 149 27 143 30 b 147 28 148 28 147 28 b 145 30 146 28 146 29 b 143 31 144 30 144 31 b 139 35 142 33 140 34 b 112 81 127 48 119 65 b 80 392 72 176 71 292 b 115 559 84 448 94 506 b 181 638 125 585 147 634 b 188 635 184 637 186 635 b 190 634 189 634 189 634 b 192 633 191 634 192 633 b 191 634 192 633 191 633 b 192 633 192 634 192 633 b 192 632 193 632 194 631 b 205 616 199 626 201 623 b 228 567 215 601 222 584 b 252 418 243 519 249 468 b 214 105 257 315 251 203 z "},"ö":{"ha":335,"x_min":0,"x_max":0,"o":"m 199 662 b 167 665 192 665 175 671 b 32 458 75 670 43 530 b 51 104 14 344 12 214 b 133 2 66 62 90 21 b 251 39 183 -20 224 -4 b 297 177 276 80 289 130 b 313 362 309 238 314 300 b 289 551 313 425 308 491 b 199 662 274 599 248 644 z m 192 634 b 191 634 192 634 192 634 b 192 634 190 636 191 635 z m 214 105 b 160 30 203 79 186 40 b 151 27 157 28 154 28 b 150 27 149 27 143 30 b 147 28 148 28 147 28 b 145 30 146 28 146 29 b 143 31 144 30 144 31 b 139 35 142 33 140 34 b 112 81 127 48 119 65 b 80 392 72 176 71 292 b 115 559 84 448 94 506 b 181 638 125 585 147 634 b 188 635 184 637 186 635 b 190 634 189 634 189 634 b 192 633 191 634 192 633 b 191 634 192 633 191 633 b 192 633 192 634 192 633 b 192 632 193 632 194 631 b 205 616 199 626 201 623 b 228 567 215 601 222 584 b 252 418 243 519 249 468 b 214 105 257 315 251 203 z "},"ø":{"ha":335,"x_min":0,"x_max":0,"o":"m 199 662 b 167 665 192 665 175 671 b 32 458 75 670 43 530 b 51 104 14 344 12 214 b 133 2 66 62 90 21 b 251 39 183 -20 224 -4 b 297 177 276 80 289 130 b 313 362 309 238 314 300 b 289 551 313 425 308 491 b 199 662 274 599 248 644 z m 192 634 b 191 634 192 634 192 634 b 192 634 190 636 191 635 z m 214 105 b 160 30 203 79 186 40 b 151 27 157 28 154 28 b 150 27 149 27 143 30 b 147 28 148 28 147 28 b 145 30 146 28 146 29 b 143 31 144 30 144 31 b 139 35 142 33 140 34 b 112 81 127 48 119 65 b 80 392 72 176 71 292 b 115 559 84 448 94 506 b 181 638 125 585 147 634 b 188 635 184 637 186 635 b 190 634 189 634 189 634 b 192 633 191 634 192 633 b 191 634 192 633 191 633 b 192 633 192 634 192 633 b 192 632 193 632 194 631 b 205 616 199 626 201 623 b 228 567 215 601 222 584 b 252 418 243 519 249 468 b 214 105 257 315 251 203 z "},"p":{"ha":296,"x_min":0,"x_max":0,"o":"m 204 635 b 52 668 160 666 105 674 b 45 652 41 667 39 660 b 52 647 47 650 49 648 b 37 343 40 546 41 444 b 28 16 33 234 29 125 b 88 0 28 -4 87 -24 b 93 202 91 68 92 135 b 103 202 97 202 100 201 b 236 275 156 210 203 232 b 286 402 264 311 280 356 b 204 635 297 485 278 584 z m 94 242 b 95 324 94 269 95 296 b 96 640 97 429 102 535 b 196 601 136 642 171 633 b 235 472 224 565 234 517 b 94 242 237 375 191 270 z "},"q":{"ha":335,"x_min":0,"x_max":0,"o":"m 199 662 b 167 665 192 665 175 671 b 32 458 75 670 43 530 b 51 104 14 344 12 214 b 133 2 66 62 90 21 b 167 -7 145 -3 156 -6 b 179 -61 171 -25 175 -43 b 220 -72 182 -75 223 -87 b 205 -2 215 -49 210 -25 b 251 39 223 5 238 19 b 297 177 276 80 289 130 b 313 362 309 238 314 300 b 289 551 313 425 308 491 b 199 662 274 599 248 644 z m 192 634 b 191 634 192 634 192 634 b 192 634 190 636 191 635 z m 214 105 b 192 59 208 91 201 74 b 188 78 190 66 189 72 b 148 89 185 92 145 102 b 160 29 152 69 156 49 b 151 27 157 28 154 28 b 150 27 149 27 143 30 b 147 28 148 28 147 28 b 145 30 146 28 146 29 b 143 31 144 30 144 31 b 139 35 142 33 140 34 b 112 81 127 48 119 65 b 80 392 72 176 71 292 b 115 559 84 448 94 506 b 181 638 125 585 147 634 b 188 635 184 637 186 635 b 190 634 189 634 189 634 b 192 633 191 634 192 633 b 191 634 192 633 191 633 b 192 633 192 634 192 633 b 192 632 193 632 194 631 b 205 616 199 626 201 623 b 228 567 215 601 222 584 b 252 418 243 519 249 468 b 214 105 257 315 251 203 z "},"r":{"ha":304,"x_min":0,"x_max":0,"o":"m 209 635 b 56 668 164 666 109 674 b 48 655 47 667 44 661 b 37 342 37 551 39 446 b 32 16 34 234 31 125 b 92 0 32 -4 91 -24 b 94 172 94 57 94 114 b 135 108 108 150 121 129 b 203 6 157 74 177 37 b 247 4 210 -3 258 -18 b 178 110 230 41 201 76 b 113 203 157 141 136 173 b 240 275 164 212 208 234 b 290 402 268 311 284 356 b 209 635 301 485 282 584 z m 95 241 b 95 323 95 269 95 296 b 91 640 95 428 99 535 b 200 601 135 643 173 635 b 239 472 228 565 238 517 b 95 241 242 374 194 268 z "},"s":{"ha":290,"x_min":0,"x_max":0,"o":"m 130 353 b 83 573 86 416 46 498 b 181 622 99 605 144 643 b 233 508 218 600 227 546 b 273 497 235 495 273 482 b 247 600 271 534 269 570 b 166 655 227 627 198 647 b 12 548 90 675 23 623 b 209 129 -13 377 184 284 b 161 27 216 86 202 46 b 66 47 125 10 90 16 b 31 63 59 57 43 63 b 17 49 23 63 12 60 b 201 -13 51 -10 138 -35 b 269 46 230 -3 257 17 b 261 158 285 82 275 123 b 130 353 233 232 176 290 z "},"t":{"ha":233,"x_min":0,"x_max":0,"o":"m 203 664 b 99 664 168 665 134 664 b 51 664 83 664 67 664 b 1 659 35 663 16 665 b 19 636 -16 653 12 637 b 88 631 41 631 65 630 b 83 335 80 533 83 433 b 83 16 82 229 81 122 b 143 0 83 -4 143 -23 b 141 320 144 107 142 213 b 133 631 140 423 142 528 b 228 631 164 630 196 629 b 236 646 238 631 242 638 b 203 664 230 656 214 663 z "},"u":{"ha":322,"x_min":0,"x_max":0,"o":"m 230 656 b 233 399 233 571 235 485 b 201 114 232 305 228 206 b 158 34 193 86 182 53 b 146 27 154 31 151 29 b 139 26 145 27 141 26 b 136 29 138 27 136 29 b 126 45 133 33 129 39 b 95 155 108 78 101 118 b 82 308 87 206 84 257 b 83 642 78 419 80 531 b 41 653 83 655 43 669 b 27 337 31 548 25 443 b 38 174 28 283 31 228 b 71 52 44 133 52 90 b 163 -10 89 17 123 -9 b 240 42 199 -11 224 12 b 275 161 259 78 268 121 b 291 320 284 214 289 267 b 290 641 297 426 296 534 b 230 656 289 661 229 679 z m 137 26 b 136 25 137 25 136 25 b 137 26 137 25 137 26 z m 141 23 b 141 23 141 23 141 23 b 142 23 141 23 142 23 b 141 23 141 23 141 23 z "},"ù":{"ha":322,"x_min":0,"x_max":0,"o":"m 230 656 b 233 399 233 571 235 485 b 201 114 232 305 228 206 b 158 34 193 86 182 53 b 146 27 154 31 151 29 b 139 26 145 27 141 26 b 136 29 138 27 136 29 b 126 45 133 33 129 39 b 95 155 108 78 101 118 b 82 308 87 206 84 257 b 83 642 78 419 80 531 b 41 653 83 655 43 669 b 27 337 31 548 25 443 b 38 174 28 283 31 228 b 71 52 44 133 52 90 b 163 -10 89 17 123 -9 b 240 42 199 -11 224 12 b 275 161 259 78 268 121 b 291 320 284 214 289 267 b 290 641 297 426 296 534 b 230 656 289 661 229 679 z m 137 26 b 136 25 137 25 136 25 b 137 26 137 25 137 26 z m 141 23 b 141 23 141 23 141 23 b 142 23 141 23 142 23 b 141 23 141 23 141 23 z "},"ú":{"ha":322,"x_min":0,"x_max":0,"o":"m 230 656 b 233 399 233 571 235 485 b 201 114 232 305 228 206 b 158 34 193 86 182 53 b 146 27 154 31 151 29 b 139 26 145 27 141 26 b 136 29 138 27 136 29 b 126 45 133 33 129 39 b 95 155 108 78 101 118 b 82 308 87 206 84 257 b 83 642 78 419 80 531 b 41 653 83 655 43 669 b 27 337 31 548 25 443 b 38 174 28 283 31 228 b 71 52 44 133 52 90 b 163 -10 89 17 123 -9 b 240 42 199 -11 224 12 b 275 161 259 78 268 121 b 291 320 284 214 289 267 b 290 641 297 426 296 534 b 230 656 289 661 229 679 z m 137 26 b 136 25 137 25 136 25 b 137 26 137 25 137 26 z m 141 23 b 141 23 141 23 141 23 b 142 23 141 23 142 23 b 141 23 141 23 141 23 z "},"û":{"ha":322,"x_min":0,"x_max":0,"o":"m 230 656 b 233 399 233 571 235 485 b 201 114 232 305 228 206 b 158 34 193 86 182 53 b 146 27 154 31 151 29 b 139 26 145 27 141 26 b 136 29 138 27 136 29 b 126 45 133 33 129 39 b 95 155 108 78 101 118 b 82 308 87 206 84 257 b 83 642 78 419 80 531 b 41 653 83 655 43 669 b 27 337 31 548 25 443 b 38 174 28 283 31 228 b 71 52 44 133 52 90 b 163 -10 89 17 123 -9 b 240 42 199 -11 224 12 b 275 161 259 78 268 121 b 291 320 284 214 289 267 b 290 641 297 426 296 534 b 230 656 289 661 229 679 z m 137 26 b 136 25 137 25 136 25 b 137 26 137 25 137 26 z m 141 23 b 141 23 141 23 141 23 b 142 23 141 23 142 23 b 141 23 141 23 141 23 z "},"ü":{"ha":322,"x_min":0,"x_max":0,"o":"m 230 656 b 233 399 233 571 235 485 b 201 114 232 305 228 206 b 158 34 193 86 182 53 b 146 27 154 31 151 29 b 139 26 145 27 141 26 b 136 29 138 27 136 29 b 126 45 133 33 129 39 b 95 155 108 78 101 118 b 82 308 87 206 84 257 b 83 642 78 419 80 531 b 41 653 83 655 43 669 b 27 337 31 548 25 443 b 38 174 28 283 31 228 b 71 52 44 133 52 90 b 163 -10 89 17 123 -9 b 240 42 199 -11 224 12 b 275 161 259 78 268 121 b 291 320 284 214 289 267 b 290 641 297 426 296 534 b 230 656 289 661 229 679 z m 137 26 b 136 25 137 25 136 25 b 137 26 137 25 137 26 z m 141 23 b 141 23 141 23 141 23 b 142 23 141 23 142 23 b 141 23 141 23 141 23 z "},"v":{"ha":296,"x_min":0,"x_max":0,"o":"m 231 661 b 140 169 199 497 169 333 b 48 638 111 326 82 482 b 7 649 46 651 5 664 b 112 16 37 437 76 227 b 170 -3 115 1 166 -23 b 290 637 211 210 252 423 b 231 661 294 659 234 679 z "},"w":{"ha":447,"x_min":0,"x_max":0,"o":"m 381 661 b 291 171 349 498 320 334 b 247 404 277 249 263 326 b 248 410 247 406 248 408 b 243 423 249 415 247 419 b 242 426 243 424 242 425 b 202 441 240 437 208 449 b 189 434 195 441 190 439 b 140 172 172 347 156 260 b 48 638 112 328 83 484 b 7 649 46 651 5 664 b 112 16 35 437 75 227 b 171 -3 115 1 167 -23 b 223 274 188 89 206 181 b 264 16 236 188 250 102 b 320 -3 266 1 316 -22 b 441 637 361 210 403 423 b 381 661 444 659 385 679 z "},"x":{"ha":294,"x_min":0,"x_max":0,"o":"m 249 667 b 142 388 208 577 175 482 b 49 653 113 477 84 566 b 9 661 45 663 5 675 b 105 339 34 552 72 446 b 115 310 108 329 111 320 b 9 10 79 210 42 111 b 68 -14 2 -10 61 -33 b 146 210 95 60 121 135 b 209 16 167 145 188 80 b 242 -9 214 2 229 -5 b 269 0 247 -10 274 -13 b 174 292 239 98 207 195 b 183 317 177 300 180 309 b 290 651 220 427 262 538 b 249 667 294 665 255 681 z "},"y":{"ha":289,"x_min":0,"x_max":0,"o":"m 252 667 b 133 354 206 566 171 459 b 107 456 125 388 116 422 b 52 657 91 522 79 593 b 11 664 48 666 11 681 b 28 566 12 631 21 598 b 50 467 36 533 43 500 b 97 268 65 401 79 334 b 100 262 97 266 98 264 b 12 10 70 178 40 95 b 71 -14 5 -10 64 -33 b 185 317 111 96 148 207 b 293 651 223 427 264 538 b 252 667 296 665 258 681 z "},"ý":{"ha":289,"x_min":0,"x_max":0,"o":"m 252 667 b 133 354 206 566 171 459 b 107 456 125 388 116 422 b 52 657 91 522 79 593 b 11 664 48 666 11 681 b 28 566 12 631 21 598 b 50 467 36 533 43 500 b 97 268 65 401 79 334 b 100 262 97 266 98 264 b 12 10 70 178 40 95 b 71 -14 5 -10 64 -33 b 185 317 111 96 148 207 b 293 651 223 427 264 538 b 252 667 296 665 258 681 z "},"ÿ":{"ha":289,"x_min":0,"x_max":0,"o":"m 252 667 b 133 354 206 566 171 459 b 107 456 125 388 116 422 b 52 657 91 522 79 593 b 11 664 48 666 11 681 b 28 566 12 631 21 598 b 50 467 36 533 43 500 b 97 268 65 401 79 334 b 100 262 97 266 98 264 b 12 10 70 178 40 95 b 71 -14 5 -10 64 -33 b 185 317 111 96 148 207 b 293 651 223 427 264 538 b 252 667 296 665 258 681 z "},"z":{"ha":285,"x_min":0,"x_max":0,"o":"m 246 674 b 29 671 173 675 101 673 b 24 658 20 671 19 664 b 52 647 29 650 42 647 b 229 643 111 645 170 643 b 116 340 186 545 152 441 b -1 10 76 230 36 121 b 58 -14 -8 -10 51 -33 b 60 -9 59 -12 59 -11 b 272 -12 131 -11 201 -13 b 279 4 284 -12 285 -3 b 244 18 271 14 256 18 b 69 17 186 20 128 18 b 173 317 105 116 139 217 b 279 644 210 425 250 534 b 281 660 285 647 286 654 b 246 674 273 670 258 674 z "},"{":{"ha":226,"x_min":0,"x_max":0,"o":"m 168 687 b 176 695 171 690 173 692 b 179 697 177 696 178 697 b 207 682 185 688 197 683 b 221 693 213 681 227 683 b 128 717 202 722 158 740 b 97 590 91 689 93 631 b 94 441 103 539 111 491 b 17 348 81 403 57 363 b 18 329 7 344 12 335 b 54 316 27 320 41 316 b 81 311 63 316 73 318 b 93 283 88 305 91 292 b 89 219 96 262 93 240 b 64 73 81 171 69 122 b 101 -23 60 36 65 -3 b 210 -8 141 -46 176 -33 b 160 20 225 4 176 32 b 133 2 152 14 143 7 b 125 -1 133 2 129 0 b 124 0 125 -1 124 -1 b 119 60 119 21 116 38 b 144 201 125 107 136 154 b 132 307 150 236 155 276 b 94 337 122 321 109 330 b 159 471 134 368 155 422 b 150 600 163 515 152 557 b 156 662 149 621 150 642 b 168 687 159 671 162 680 z m 120 -3 b 119 -2 119 -3 119 -3 b 120 -3 119 -2 119 -3 z "},"|":{"ha":135,"x_min":0,"x_max":0,"o":"m 98 798 b 51 813 97 811 53 828 b 46 703 46 777 47 740 b 44 587 45 665 44 626 b 40 363 42 513 41 438 b 33 -93 38 212 34 59 b 88 -107 33 -110 87 -128 b 95 345 92 44 93 194 b 98 569 96 420 97 494 b 98 798 99 644 105 723 z "},"}":{"ha":192,"x_min":0,"x_max":0,"o":"m 163 60 b 119 211 161 113 133 160 b 112 290 112 236 107 264 b 149 344 116 311 126 339 b 149 364 161 347 154 359 b 122 376 142 370 132 375 b 122 377 122 377 122 377 b 116 388 119 381 118 384 b 110 417 112 397 111 407 b 111 474 108 436 110 455 b 121 603 114 517 118 560 b 97 702 123 637 123 676 b 20 710 78 721 40 734 b 60 688 9 697 50 678 b 62 688 61 688 61 688 b 64 682 62 686 63 684 b 68 655 67 673 68 664 b 66 602 69 637 67 619 b 56 482 62 562 59 522 b 70 383 53 449 52 413 b 85 365 74 376 79 370 b 56 300 68 349 59 323 b 81 176 52 257 66 216 b 108 55 96 137 111 97 b 92 4 107 38 103 19 b 79 -5 90 2 83 -2 b 74 3 77 -2 75 1 b 26 12 69 16 21 29 b 116 -40 35 -25 78 -51 b 163 60 157 -29 165 24 z "}," ":{"ha":197,"x_min":0,"x_max":0,"o":""},"¡":{"ha":147,"x_min":0,"x_max":0,"o":"m 105 532 b 55 545 103 548 56 565 b 52 251 52 447 57 349 b 41 108 49 203 45 156 b 34 31 39 83 36 57 b 27 -42 31 8 24 -19 b 83 -61 29 -58 74 -79 b 94 11 92 -40 91 -11 b 101 80 96 34 99 57 b 110 232 105 131 108 181 b 105 532 113 331 116 433 z m 54 633 b 79 612 57 622 69 615 b 108 615 85 610 105 605 b 108 643 110 624 109 634 b 106 672 108 653 108 663 b 50 687 104 690 51 710 b 51 660 50 678 51 669 b 54 633 52 651 51 641 z "},"¢":{"ha":269,"x_min":0,"x_max":0,"o":"m 183 171 b 179 152 182 165 180 158 b 175 616 168 306 167 461 b 185 592 179 608 182 600 b 202 523 192 569 198 546 b 243 512 204 510 244 496 b 202 640 240 556 235 607 b 177 657 195 647 187 653 b 180 703 178 672 179 688 b 141 713 181 715 142 729 b 138 666 140 697 139 682 b 101 652 124 666 111 661 b 67 588 84 635 74 610 b 44 483 56 554 49 518 b 34 228 33 399 29 313 b 71 36 37 166 40 92 b 154 -12 87 8 121 -16 b 159 -53 156 -25 157 -39 b 199 -64 161 -67 201 -78 b 191 9 196 -40 193 -16 b 216 52 202 21 210 37 b 242 147 228 82 236 115 b 183 171 246 169 187 190 z m 119 26 b 119 26 119 26 119 26 b 119 26 119 25 119 25 z m 135 19 b 135 19 135 19 135 19 b 135 19 135 19 135 19 z m 135 39 b 127 31 135 38 131 34 b 125 35 126 32 126 34 b 94 199 101 84 97 145 b 95 418 88 272 89 345 b 131 594 100 476 107 539 b 134 600 132 596 133 598 b 147 56 126 419 130 237 b 135 39 144 50 140 44 z "},"£":{"ha":317,"x_min":0,"x_max":0,"o":"m 256 22 b 129 21 214 25 171 23 b 127 272 137 105 133 188 b 135 282 133 272 138 274 b 126 291 134 285 130 288 b 118 407 123 329 120 368 b 131 569 115 460 111 519 b 175 620 140 590 154 610 b 232 592 203 633 219 615 b 234 422 262 539 260 477 b 272 407 228 410 266 394 b 276 575 298 460 301 520 b 134 649 252 628 195 671 b 59 517 80 630 64 568 b 64 298 52 444 59 370 b 38 298 55 298 47 298 b 26 289 31 299 22 297 b 51 275 29 281 43 275 b 66 274 56 275 61 274 b 64 18 71 189 74 104 b 126 -8 62 -5 121 -25 b 279 -9 177 -10 229 -13 b 287 6 289 -8 292 -2 b 256 22 282 15 266 21 z "},"¤":{"ha":344,"x_min":0,"x_max":0,"o":"m 309 214 b 309 347 319 257 322 304 b 286 396 304 364 296 381 b 292 407 288 399 290 403 b 260 426 298 415 273 429 b 206 463 245 442 226 454 b 205 467 206 464 206 465 b 163 489 195 480 180 488 b 122 473 147 490 134 483 b 112 472 119 473 115 472 b 109 461 105 470 106 465 b 83 431 99 452 91 442 b 81 434 82 432 82 433 b 44 439 76 446 36 455 b 63 401 51 426 57 414 b 52 378 59 394 55 386 b 52 158 22 311 17 225 b 74 129 58 148 65 138 b 50 90 66 116 58 103 b 89 74 43 80 81 62 b 106 102 94 84 100 93 b 223 90 141 81 185 74 b 247 44 231 75 239 59 b 284 39 252 32 293 23 b 250 106 273 62 261 84 b 253 109 251 107 252 108 b 309 214 284 135 299 175 z m 134 398 b 161 434 142 411 151 422 b 173 446 165 437 169 442 b 241 402 201 443 225 425 b 163 275 215 360 189 317 b 116 366 148 305 132 336 b 134 398 121 377 127 388 z m 101 174 b 99 319 85 220 87 273 b 101 327 100 322 101 325 b 144 244 116 299 130 272 b 101 174 130 220 115 197 z m 161 116 b 123 131 145 113 133 120 b 166 201 138 154 152 178 b 201 133 178 178 189 156 b 161 116 189 125 175 118 z m 231 166 b 224 157 229 163 227 160 b 185 232 211 182 198 207 b 262 358 211 274 237 316 b 265 347 263 354 264 350 b 231 166 279 287 264 217 z "},"¥":{"ha":379,"x_min":0,"x_max":0,"o":"m 309 651 b 269 667 313 665 275 681 b 150 354 222 566 187 459 b 124 456 141 388 133 422 b 68 657 107 522 95 593 b 28 664 65 666 28 681 b 45 566 29 631 38 598 b 67 467 52 533 60 500 b 112 274 82 403 95 338 b 64 267 96 272 80 270 b 66 251 55 265 62 255 b 94 244 73 245 85 242 b 111 247 100 245 105 246 b 103 225 109 240 106 232 b 61 218 89 223 75 221 b 63 203 51 216 59 206 b 91 196 70 197 81 194 b 93 196 91 196 92 196 b 28 10 71 134 49 72 b 88 -14 22 -10 80 -33 b 164 205 114 59 139 132 b 216 206 181 206 199 206 b 222 220 226 206 226 213 b 194 231 216 227 203 231 b 173 231 187 231 180 231 b 180 253 175 238 178 246 b 220 252 193 253 206 253 b 206 276 247 250 221 275 b 189 277 200 277 194 277 b 202 317 193 290 198 304 b 309 651 240 427 281 538 z "},"§":{"ha":250,"x_min":0,"x_max":0,"o":"m 154 627 b 54 577 109 647 61 630 b 106 438 47 523 77 481 b 101 437 104 438 102 437 b 57 351 64 430 54 383 b 117 233 63 305 93 271 b 129 110 138 199 157 146 b 72 181 93 65 72 157 b 26 193 72 196 26 211 b 92 76 27 147 48 98 b 196 126 139 53 189 71 b 145 263 202 180 172 221 b 151 264 147 264 149 264 b 194 351 188 272 198 319 b 132 471 187 398 156 432 b 124 595 111 504 91 563 b 178 521 160 629 177 545 b 223 509 178 506 224 491 b 154 627 223 557 200 606 z m 128 398 b 138 358 133 385 137 372 b 123 303 139 342 136 317 b 113 344 118 316 114 330 b 128 398 112 359 116 385 z "},"©":{"ha":413,"x_min":0,"x_max":0,"o":"m 295 607 b 160 635 257 635 205 652 b 135 623 151 632 142 628 b 116 621 127 625 120 624 b 46 479 75 585 57 531 b 28 305 34 423 26 362 b 203 107 31 211 87 84 b 380 332 301 126 364 242 b 295 607 396 428 377 544 z m 327 360 b 204 156 314 281 273 200 b 147 139 189 147 165 134 b 115 174 132 143 122 161 b 88 301 94 212 88 257 b 105 459 87 354 95 407 b 115 502 108 473 111 488 b 118 505 117 503 117 504 b 262 594 136 560 199 646 b 327 360 328 542 340 438 z m 213 535 b 131 409 156 540 138 451 b 168 255 124 360 115 282 b 235 259 190 244 216 241 b 269 339 256 280 263 311 b 226 357 273 355 229 371 b 206 302 221 338 216 318 b 192 284 202 295 196 290 b 189 283 190 283 189 283 b 187 289 188 285 187 287 b 189 397 179 323 183 364 b 225 493 195 428 204 469 b 226 494 226 494 226 494 b 232 480 228 489 231 485 b 236 423 237 461 237 443 b 280 412 236 409 279 394 b 273 495 282 439 286 469 b 213 535 262 517 238 533 z "},"­":{"ha":0,"x_min":0,"x_max":0,"o":""},"®":{"ha":413,"x_min":0,"x_max":0,"o":"m 295 607 b 160 635 257 635 205 652 b 135 623 151 632 142 628 b 116 621 127 625 120 624 b 46 479 75 585 57 531 b 28 305 34 423 26 362 b 203 107 31 211 87 84 b 380 332 301 126 364 242 b 295 607 396 428 377 544 z m 327 360 b 204 156 314 281 273 200 b 147 139 189 147 165 134 b 115 174 132 143 122 161 b 88 301 94 212 88 257 b 105 459 87 354 95 407 b 115 502 108 473 111 488 b 118 505 117 503 117 504 b 262 594 136 560 199 646 b 327 360 328 542 340 438 z m 209 519 b 199 505 206 515 202 510 b 149 520 193 522 151 535 b 135 384 143 475 138 430 b 131 242 132 337 127 288 b 184 228 132 225 182 206 b 187 298 186 251 187 274 b 200 306 195 297 201 299 b 200 335 200 315 200 325 b 210 337 204 335 207 336 b 216 332 212 335 214 333 b 238 305 225 323 231 314 b 270 291 245 296 260 291 b 282 303 277 291 288 293 b 236 353 271 322 255 339 b 288 438 261 376 281 416 b 286 518 295 463 304 496 b 209 519 265 543 229 544 z m 249 479 b 232 429 246 462 240 445 b 208 391 226 416 218 403 b 206 389 208 390 207 390 b 213 415 208 398 210 406 b 232 465 218 432 224 449 b 241 482 235 471 238 477 b 251 495 242 485 247 490 b 249 479 251 490 250 484 z "},"µ":{"ha":279,"x_min":0,"x_max":0,"o":"m 248 165 b 220 187 240 174 230 181 b 219 387 211 253 218 321 b 223 616 221 463 222 540 b 171 629 223 633 172 650 b 165 422 169 560 167 491 b 157 417 161 422 158 420 b 142 380 153 404 149 391 b 112 353 137 372 123 352 b 94 386 102 354 96 378 b 96 429 91 401 92 415 b 88 443 98 434 94 439 b 88 443 88 443 88 443 b 88 493 88 460 88 477 b 81 548 87 512 90 531 b 40 562 76 556 48 572 b 33 516 29 548 33 533 b 33 466 33 499 33 483 b 33 354 33 429 33 392 b 35 134 33 281 29 207 b 90 120 36 117 89 97 b 89 336 95 191 90 264 b 89 337 89 336 89 337 b 103 331 93 335 98 333 b 162 335 127 321 146 324 b 165 196 160 289 159 241 b 137 154 146 191 131 176 b 181 143 140 140 184 128 b 185 162 179 150 180 157 b 219 156 197 157 211 154 b 242 150 226 152 235 149 b 248 165 252 151 255 157 z "},"¶":{"ha":363,"x_min":0,"x_max":0,"o":"m 327 596 b 281 612 326 609 284 627 b 280 604 281 609 280 606 b 277 601 279 603 278 602 b 229 542 263 580 247 560 b 167 625 221 577 204 608 b 70 537 105 652 74 590 b 91 458 68 509 71 479 b 178 440 113 435 149 428 b 190 446 182 442 186 444 b 194 443 191 445 192 444 b 179 -3 189 294 184 145 b 234 -18 179 -21 234 -39 b 251 491 240 152 245 321 b 274 516 259 499 266 507 b 272 474 273 502 273 488 b 267 331 270 426 269 379 b 261 46 264 237 255 140 b 316 32 262 28 317 11 b 322 312 310 125 319 219 b 326 452 324 359 325 405 b 327 596 328 499 332 549 z m 182 499 b 129 466 169 488 146 467 b 128 469 129 467 128 468 b 122 484 127 474 124 479 b 118 515 120 494 118 505 b 131 576 118 536 122 557 b 146 597 134 584 139 592 b 163 596 155 604 156 605 b 182 499 182 570 184 533 z "},"¿":{"ha":333,"x_min":0,"x_max":0,"o":"m 299 236 b 263 291 293 258 283 279 b 206 294 245 302 224 306 b 240 270 195 287 224 270 b 240 270 240 270 240 270 b 246 272 243 270 245 271 b 241 270 244 270 242 270 b 242 265 241 269 242 268 b 247 249 243 260 246 254 b 252 224 249 241 250 232 b 257 169 254 206 256 187 b 245 55 258 131 256 92 b 194 -31 235 23 219 -9 b 122 -47 175 -48 146 -62 b 81 39 95 -30 86 9 b 85 151 76 76 78 114 b 156 362 98 225 128 293 b 215 608 189 440 216 522 b 154 624 214 628 154 647 b 25 71 154 430 7 266 b 167 -82 32 -6 82 -82 b 304 81 249 -81 292 12 b 299 236 313 132 312 186 z m 162 705 b 194 693 171 698 182 692 b 197 693 195 693 196 693 b 210 703 204 694 209 696 b 211 750 211 718 213 735 b 184 772 210 761 193 769 b 154 769 178 774 156 779 b 152 726 151 755 152 740 b 162 705 152 717 154 711 z "},"÷":{"ha":208,"x_min":0,"x_max":0,"o":"m 114 382 b 147 387 124 380 139 378 b 154 411 153 393 156 402 b 97 457 148 435 120 451 b 73 454 90 458 77 461 b 72 445 71 451 71 448 b 69 433 70 442 69 438 b 114 382 68 407 89 388 z m 138 251 b 138 251 138 251 138 251 b 120 273 144 260 124 271 b 86 276 112 277 94 283 b 76 266 82 272 79 271 b 70 254 73 263 71 259 b 68 231 68 247 67 239 b 121 190 72 207 98 193 b 156 219 140 188 158 198 b 138 251 156 233 148 243 z m 180 339 b 145 352 171 348 157 353 b 29 340 106 350 68 344 b 22 322 18 339 15 331 b 60 307 30 313 48 306 b 180 321 100 311 141 314 b 180 339 192 323 184 335 z "},"‰":{"ha":506,"x_min":0,"x_max":0,"o":"m 263 622 b 19 -17 171 413 90 199 b 73 -39 12 -36 67 -57 b 317 600 144 177 226 391 b 263 622 325 617 271 640 z m 107 419 b 184 527 155 423 202 480 b 92 581 173 558 128 586 b 72 581 85 582 78 582 b 30 525 48 576 36 546 b 107 419 13 473 48 414 z m 128 547 b 127 546 131 548 129 545 b 128 547 128 546 128 546 z m 81 493 b 93 530 83 506 88 518 b 95 534 94 531 95 533 b 110 537 101 534 107 534 b 122 543 114 539 118 541 b 127 545 124 544 125 544 b 134 516 131 535 134 527 b 93 461 132 492 112 473 b 87 457 91 459 89 458 b 83 456 85 456 84 456 b 83 457 83 456 83 456 b 81 493 78 468 78 481 z m 420 110 b 301 126 390 143 338 147 b 299 116 296 123 297 119 b 289 95 295 110 292 103 b 276 118 286 104 282 112 b 222 149 264 133 243 145 b 190 153 210 155 196 158 b 182 145 187 150 184 148 b 165 131 176 142 170 137 b 165 122 163 128 163 125 b 162 35 150 96 145 64 b 268 3 180 3 234 -22 b 287 25 276 9 282 17 b 296 6 289 18 292 12 b 349 -22 309 -10 329 -20 b 404 3 372 -24 389 -13 b 420 110 432 31 451 75 z m 216 28 b 215 27 216 28 215 28 b 209 40 212 31 211 35 b 207 73 206 50 205 62 b 226 116 210 89 217 103 b 232 115 228 117 230 117 b 241 87 239 110 241 95 b 216 28 243 63 234 43 z m 380 76 b 345 21 377 54 361 35 b 340 18 344 20 342 19 b 339 46 339 27 338 36 b 352 100 340 65 348 82 b 375 106 360 103 371 108 b 380 76 381 104 382 83 z "},"€":{"ha":307,"x_min":0,"x_max":0,"o":"m 220 171 b 173 39 211 128 201 73 b 164 31 172 38 168 34 b 162 35 164 32 163 34 b 131 199 138 84 135 145 b 128 270 129 222 128 246 b 174 273 143 271 159 272 b 180 286 183 273 184 280 b 151 297 174 294 160 297 b 128 296 143 297 135 297 b 128 320 128 304 128 312 b 181 326 145 322 163 324 b 158 350 204 328 171 351 b 128 347 148 349 138 348 b 133 418 129 371 131 394 b 168 594 138 476 145 539 b 183 620 172 603 177 612 b 201 632 190 628 196 629 b 208 623 204 629 208 624 b 222 592 214 614 219 602 b 239 523 230 569 235 546 b 280 512 241 510 281 496 b 240 640 277 556 273 607 b 139 652 215 664 167 678 b 104 588 121 635 112 610 b 82 483 93 554 87 518 b 70 341 75 436 71 389 b 30 337 57 340 44 338 b 52 313 8 335 40 312 b 69 315 58 314 64 314 b 69 289 69 306 69 298 b 24 280 54 287 39 284 b 26 265 15 278 22 268 b 55 257 33 259 45 255 b 70 260 60 258 65 259 b 71 228 70 250 71 239 b 108 36 74 166 78 92 b 206 -8 126 3 169 -23 b 253 52 230 2 244 29 b 279 147 265 82 273 115 b 220 171 284 169 224 190 z m 200 635 b 200 634 200 635 200 634 b 200 635 200 634 199 634 z m 156 26 b 156 26 156 26 156 26 b 156 26 156 25 156 25 z m 172 19 b 172 19 172 19 172 19 b 172 19 172 19 173 19 z "}}}
